<svg width="527" height="527" viewBox="0 0 527 527" fill="none" xmlns="http://www.w3.org/2000/svg">
<circle cx="263.5" cy="263.5" r="263.5" fill="#F8F4EA"/>
<mask id="path-2-outside-1_220_2" maskUnits="userSpaceOnUse" x="208" y="198" width="236" height="236" fill="black">
<rect fill="white" x="208" y="198" width="236" height="236"/>
<path d="M409.357 274.172C406.232 267.238 403.156 261.184 400.129 256.008C397.102 250.734 393.146 245.266 388.264 239.602C383.381 233.938 378.156 229.299 372.59 225.686C367.023 222.072 360.188 219.094 352.082 216.75C343.977 214.406 335.041 213.234 325.275 213.234C314.729 213.234 305.158 215.383 296.564 219.68C287.971 223.977 280.891 229.592 275.324 236.525C269.855 243.459 265.217 251.516 261.408 260.695C257.697 269.777 255.061 278.957 253.498 288.234C251.936 297.414 251.154 306.74 251.154 316.213C251.154 325.588 251.984 334.914 253.645 344.191C255.305 353.371 258.039 362.502 261.848 371.584C265.754 380.666 270.539 388.625 276.203 395.461C281.867 402.297 288.996 407.863 297.59 412.16C306.281 416.359 315.9 418.459 326.447 418.459C347.932 418.459 362.873 413.674 371.271 404.104V344.631C371.271 342.58 370.441 340.773 368.781 339.211C367.121 337.551 365.217 336.281 363.068 335.402C360.92 334.523 358.039 333.742 354.426 333.059C350.91 332.277 348.029 331.74 345.783 331.447C343.537 331.154 340.705 330.861 337.287 330.568C336.896 329.006 336.701 327.834 336.701 327.053C336.701 326.369 336.896 325.246 337.287 323.684C359.357 324.465 376.35 324.855 388.264 324.855C400.373 324.855 417.365 324.465 439.24 323.684C439.729 325.637 439.973 326.76 439.973 327.053C439.973 327.443 439.729 328.615 439.24 330.568C435.822 330.861 432.99 331.154 430.744 331.447C428.498 331.74 425.568 332.277 421.955 333.059C418.439 333.742 415.607 334.523 413.459 335.402C411.408 336.281 409.553 337.551 407.893 339.211C406.232 340.773 405.402 342.58 405.402 344.631V366.311C405.402 384.865 407.6 400.051 411.994 411.867C395.881 417.824 381.574 422.17 369.074 424.904C356.574 427.639 342.365 429.006 326.447 429.006C316.975 429.006 307.453 428.029 297.883 426.076C288.312 424.123 278.254 420.461 267.707 415.09C257.258 409.719 248.029 402.98 240.021 394.875C232.111 386.77 225.52 375.93 220.246 362.355C215.07 348.781 212.482 333.4 212.482 316.213C212.482 303.811 213.801 292.336 216.438 281.789C219.172 271.145 222.785 262.014 227.277 254.396C231.77 246.779 237.092 239.943 243.244 233.889C249.494 227.834 255.988 222.902 262.727 219.094C269.465 215.285 276.545 212.16 283.967 209.719C291.486 207.18 298.615 205.422 305.354 204.445C312.092 203.371 318.732 202.834 325.275 202.834C336.213 202.834 346.613 203.518 356.477 204.885C366.438 206.154 376.35 207.766 386.213 209.719C396.076 211.574 403.889 212.844 409.65 213.527C408.186 217.922 407.453 224.123 407.453 232.131C407.453 245.412 409.846 258.352 414.631 270.949C414.045 272.707 412.287 273.781 409.357 274.172Z"/>
</mask>
<path d="M409.357 274.172C406.232 267.238 403.156 261.184 400.129 256.008C397.102 250.734 393.146 245.266 388.264 239.602C383.381 233.938 378.156 229.299 372.59 225.686C367.023 222.072 360.188 219.094 352.082 216.75C343.977 214.406 335.041 213.234 325.275 213.234C314.729 213.234 305.158 215.383 296.564 219.68C287.971 223.977 280.891 229.592 275.324 236.525C269.855 243.459 265.217 251.516 261.408 260.695C257.697 269.777 255.061 278.957 253.498 288.234C251.936 297.414 251.154 306.74 251.154 316.213C251.154 325.588 251.984 334.914 253.645 344.191C255.305 353.371 258.039 362.502 261.848 371.584C265.754 380.666 270.539 388.625 276.203 395.461C281.867 402.297 288.996 407.863 297.59 412.16C306.281 416.359 315.9 418.459 326.447 418.459C347.932 418.459 362.873 413.674 371.271 404.104V344.631C371.271 342.58 370.441 340.773 368.781 339.211C367.121 337.551 365.217 336.281 363.068 335.402C360.92 334.523 358.039 333.742 354.426 333.059C350.91 332.277 348.029 331.74 345.783 331.447C343.537 331.154 340.705 330.861 337.287 330.568C336.896 329.006 336.701 327.834 336.701 327.053C336.701 326.369 336.896 325.246 337.287 323.684C359.357 324.465 376.35 324.855 388.264 324.855C400.373 324.855 417.365 324.465 439.24 323.684C439.729 325.637 439.973 326.76 439.973 327.053C439.973 327.443 439.729 328.615 439.24 330.568C435.822 330.861 432.99 331.154 430.744 331.447C428.498 331.74 425.568 332.277 421.955 333.059C418.439 333.742 415.607 334.523 413.459 335.402C411.408 336.281 409.553 337.551 407.893 339.211C406.232 340.773 405.402 342.58 405.402 344.631V366.311C405.402 384.865 407.6 400.051 411.994 411.867C395.881 417.824 381.574 422.17 369.074 424.904C356.574 427.639 342.365 429.006 326.447 429.006C316.975 429.006 307.453 428.029 297.883 426.076C288.312 424.123 278.254 420.461 267.707 415.09C257.258 409.719 248.029 402.98 240.021 394.875C232.111 386.77 225.52 375.93 220.246 362.355C215.07 348.781 212.482 333.4 212.482 316.213C212.482 303.811 213.801 292.336 216.438 281.789C219.172 271.145 222.785 262.014 227.277 254.396C231.77 246.779 237.092 239.943 243.244 233.889C249.494 227.834 255.988 222.902 262.727 219.094C269.465 215.285 276.545 212.16 283.967 209.719C291.486 207.18 298.615 205.422 305.354 204.445C312.092 203.371 318.732 202.834 325.275 202.834C336.213 202.834 346.613 203.518 356.477 204.885C366.438 206.154 376.35 207.766 386.213 209.719C396.076 211.574 403.889 212.844 409.65 213.527C408.186 217.922 407.453 224.123 407.453 232.131C407.453 245.412 409.846 258.352 414.631 270.949C414.045 272.707 412.287 273.781 409.357 274.172Z" fill="#242424"/>
<path d="M409.357 274.172L405.711 275.815L406.934 278.53L409.886 278.137L409.357 274.172ZM400.129 256.008L396.66 257.999L396.668 258.013L396.676 258.027L400.129 256.008ZM275.324 236.525L272.205 234.021L272.194 234.035L272.184 234.048L275.324 236.525ZM261.408 260.695L257.714 259.162L257.709 259.172L257.705 259.182L261.408 260.695ZM253.498 288.234L257.441 288.906L257.442 288.899L253.498 288.234ZM253.645 344.191L249.707 344.896L249.708 344.903L253.645 344.191ZM261.848 371.584L258.159 373.131L258.166 373.148L258.173 373.164L261.848 371.584ZM297.59 412.16L295.801 415.738L295.825 415.75L295.85 415.762L297.59 412.16ZM371.271 404.104L374.278 406.742L375.271 405.61V404.104H371.271ZM368.781 339.211L365.953 342.039L365.996 342.082L366.04 342.124L368.781 339.211ZM354.426 333.059L353.558 336.963L353.62 336.977L353.682 336.989L354.426 333.059ZM337.287 330.568L333.407 331.538L334.099 334.31L336.946 334.554L337.287 330.568ZM337.287 323.684L337.429 319.686L334.192 319.572L333.407 322.713L337.287 323.684ZM439.24 323.684L443.121 322.713L442.335 319.571L439.097 319.686L439.24 323.684ZM439.24 330.568L439.582 334.554L442.428 334.31L443.121 331.538L439.24 330.568ZM421.955 333.059L422.719 336.985L422.76 336.977L422.8 336.968L421.955 333.059ZM413.459 335.402L411.944 331.7L411.914 331.713L411.883 331.726L413.459 335.402ZM407.893 339.211L410.634 342.124L410.678 342.082L410.721 342.039L407.893 339.211ZM411.994 411.867L413.381 415.619L417.14 414.229L415.743 410.473L411.994 411.867ZM267.707 415.09L265.878 418.647L265.885 418.651L265.892 418.654L267.707 415.09ZM240.021 394.875L237.159 397.669L237.167 397.678L237.176 397.686L240.021 394.875ZM220.246 362.355L216.509 363.781L216.513 363.792L216.518 363.804L220.246 362.355ZM216.438 281.789L212.563 280.794L212.56 280.806L212.557 280.819L216.438 281.789ZM243.244 233.889L240.461 231.016L240.45 231.027L240.438 231.038L243.244 233.889ZM283.967 209.719L285.217 213.518L285.232 213.514L285.246 213.509L283.967 209.719ZM305.354 204.445L305.927 208.404L305.955 208.4L305.983 208.395L305.354 204.445ZM356.477 204.885L355.927 208.847L355.949 208.85L355.971 208.853L356.477 204.885ZM386.213 209.719L385.436 213.643L385.455 213.646L385.473 213.65L386.213 209.719ZM409.65 213.527L413.445 214.792L414.998 210.134L410.122 209.555L409.65 213.527ZM414.631 270.949L418.426 272.214L418.876 270.862L418.37 269.529L414.631 270.949ZM413.004 272.528C409.836 265.498 406.696 259.313 403.582 253.988L396.676 258.027C399.616 263.054 402.629 268.978 405.711 275.815L413.004 272.528ZM403.598 254.016C400.419 248.479 396.306 242.804 391.293 236.99L385.234 242.213C389.987 247.727 393.784 252.989 396.66 257.999L403.598 254.016ZM391.293 236.99C386.194 231.075 380.689 226.174 374.768 222.33L370.412 229.041C375.623 232.424 380.568 236.8 385.234 242.213L391.293 236.99ZM374.768 222.33C368.796 218.454 361.579 215.332 353.193 212.907L350.971 220.593C358.796 222.855 365.251 225.69 370.412 229.041L374.768 222.33ZM353.193 212.907C344.675 210.444 335.359 209.234 325.275 209.234V217.234C334.723 217.234 343.278 218.368 350.971 220.593L353.193 212.907ZM325.275 209.234C314.169 209.234 303.977 211.501 294.776 216.102L298.353 223.257C306.339 219.265 315.288 217.234 325.275 217.234V209.234ZM294.776 216.102C285.708 220.636 278.161 226.603 272.205 234.021L278.443 239.03C283.621 232.581 290.233 227.318 298.353 223.257L294.776 216.102ZM272.184 234.048C266.461 241.303 261.645 249.686 257.714 259.162L265.103 262.228C268.788 253.345 273.25 245.615 278.465 239.003L272.184 234.048ZM257.705 259.182C253.888 268.526 251.167 277.99 249.554 287.57L257.442 288.899C258.954 279.924 261.507 271.029 265.111 262.208L257.705 259.182ZM249.555 287.563C247.954 296.968 247.154 306.519 247.154 316.213H255.154C255.154 306.961 255.917 297.86 257.441 288.906L249.555 287.563ZM247.154 316.213C247.154 325.825 248.006 335.387 249.707 344.896L257.582 343.487C255.963 334.441 255.154 325.35 255.154 316.213H247.154ZM249.708 344.903C251.423 354.385 254.244 363.795 258.159 373.131L265.536 370.037C261.834 361.209 259.186 352.357 257.581 343.48L249.708 344.903ZM258.173 373.164C262.213 382.558 267.19 390.852 273.123 398.013L279.283 392.909C273.889 386.398 269.295 378.774 265.522 370.004L258.173 373.164ZM273.123 398.013C279.17 405.311 286.752 411.213 295.801 415.738L299.379 408.582C291.241 404.513 284.564 399.283 279.283 392.909L273.123 398.013ZM295.85 415.762C305.133 420.247 315.354 422.459 326.447 422.459V414.459C316.446 414.459 307.43 412.472 299.33 408.559L295.85 415.762ZM326.447 422.459C348.324 422.459 364.732 417.619 374.278 406.742L368.265 401.465C361.014 409.728 347.54 414.459 326.447 414.459V422.459ZM375.271 404.104V344.631H367.271V404.104H375.271ZM375.271 344.631C375.271 341.348 373.887 338.523 371.523 336.298L366.04 342.124C366.996 343.024 367.271 343.812 367.271 344.631H375.271ZM371.61 336.383C369.578 334.351 367.229 332.783 364.583 331.7L361.554 339.105C363.205 339.78 364.664 340.75 365.953 342.039L371.61 336.383ZM364.583 331.7C362.085 330.678 358.913 329.837 355.169 329.128L353.682 336.989C357.165 337.648 359.755 338.368 361.554 339.105L364.583 331.7ZM355.294 329.154C351.721 328.36 348.712 327.795 346.301 327.481L345.266 335.414C347.347 335.685 350.099 336.195 353.558 336.963L355.294 329.154ZM346.301 327.481C343.975 327.177 341.079 326.879 337.629 326.583L336.946 334.554C340.331 334.844 343.1 335.131 345.266 335.414L346.301 327.481ZM341.168 329.598C340.791 328.092 340.701 327.317 340.701 327.053H332.701C332.701 328.35 333.002 329.92 333.407 331.538L341.168 329.598ZM340.701 327.053C340.701 327.063 340.701 327.014 340.715 326.888C340.728 326.765 340.751 326.599 340.788 326.383C340.864 325.947 340.987 325.376 341.168 324.654L333.407 322.713C333.014 324.282 332.701 325.829 332.701 327.053H340.701ZM337.146 327.681C359.231 328.463 376.278 328.855 388.264 328.855V320.855C376.421 320.855 359.484 320.467 337.429 319.686L337.146 327.681ZM388.264 328.855C400.444 328.855 417.492 328.463 439.383 327.681L439.097 319.686C417.239 320.467 400.302 320.855 388.264 320.855V328.855ZM435.36 324.654C435.6 325.615 435.772 326.338 435.881 326.84C435.936 327.094 435.968 327.26 435.985 327.357C435.993 327.405 435.994 327.412 435.991 327.388C435.99 327.387 435.973 327.253 435.973 327.053H443.973C443.973 326.6 443.898 326.17 443.869 325.998C443.824 325.741 443.765 325.449 443.698 325.141C443.563 324.52 443.369 323.705 443.121 322.713L435.36 324.654ZM435.973 327.053C435.973 326.827 435.999 326.721 435.975 326.875C435.958 326.979 435.927 327.152 435.874 327.409C435.767 327.92 435.598 328.644 435.36 329.598L443.121 331.538C443.37 330.54 443.568 329.701 443.705 329.04C443.812 328.53 443.973 327.731 443.973 327.053H435.973ZM438.899 326.583C435.448 326.879 432.553 327.177 430.227 327.481L431.261 335.414C433.428 335.131 436.196 334.844 439.582 334.554L438.899 326.583ZM430.227 327.481C427.824 327.794 424.773 328.357 421.11 329.149L422.8 336.968C426.364 336.198 429.172 335.686 431.261 335.414L430.227 327.481ZM421.192 329.132C417.541 329.842 414.428 330.684 411.944 331.7L414.974 339.105C416.786 338.363 419.338 337.642 422.719 336.985L421.192 329.132ZM411.883 331.726C409.341 332.815 407.065 334.382 405.064 336.383L410.721 342.039C412.04 340.72 413.476 339.747 415.035 339.079L411.883 331.726ZM405.151 336.298C402.787 338.523 401.402 341.348 401.402 344.631H409.402C409.402 343.812 409.678 343.024 410.634 342.124L405.151 336.298ZM401.402 344.631V366.311H409.402V344.631H401.402ZM401.402 366.311C401.402 385.137 403.626 400.841 408.245 413.261L415.743 410.473C411.573 399.26 409.402 384.593 409.402 366.311H401.402ZM410.607 408.115C394.613 414.028 380.489 418.313 368.219 420.997L369.929 428.812C382.659 426.027 397.149 421.62 413.381 415.619L410.607 408.115ZM368.219 420.997C356.058 423.657 342.144 425.006 326.447 425.006V433.006C342.586 433.006 357.09 431.62 369.929 428.812L368.219 420.997ZM326.447 425.006C317.251 425.006 307.998 424.058 298.683 422.157L297.083 429.995C306.908 432.001 316.698 433.006 326.447 433.006V425.006ZM298.683 422.157C289.53 420.289 279.813 416.766 269.522 411.525L265.892 418.654C276.694 424.156 287.095 427.957 297.083 429.995L298.683 422.157ZM269.536 411.532C259.451 406.349 250.568 399.859 242.867 392.064L237.176 397.686C245.49 406.102 255.065 413.089 265.878 418.647L269.536 411.532ZM242.884 392.081C235.441 384.454 229.106 374.117 223.975 360.907L216.518 363.804C221.933 377.743 228.781 389.085 237.159 397.669L242.884 392.081ZM223.984 360.93C219.01 347.886 216.482 333.001 216.482 316.213H208.482C208.482 333.8 211.131 349.676 216.509 363.781L223.984 360.93ZM216.482 316.213C216.482 304.093 217.771 292.948 220.318 282.759L212.557 280.819C209.831 291.724 208.482 303.528 208.482 316.213H216.482ZM220.312 282.784C222.974 272.419 226.461 263.655 230.723 256.428L223.832 252.365C219.109 260.373 215.37 269.87 212.563 280.794L220.312 282.784ZM230.723 256.428C235.043 249.104 240.152 242.544 246.05 236.74L240.438 231.038C234.032 237.342 228.496 244.455 223.832 252.365L230.723 256.428ZM246.027 236.762C252.063 230.915 258.287 226.198 264.695 222.576L260.758 215.611C253.689 219.607 246.926 224.753 240.461 231.016L246.027 236.762ZM264.695 222.576C271.202 218.898 278.042 215.879 285.217 213.518L282.717 205.919C275.048 208.442 267.727 211.673 260.758 215.611L264.695 222.576ZM285.246 213.509C292.573 211.035 299.464 209.341 305.927 208.404L304.78 200.487C297.766 201.503 290.4 203.325 282.687 205.929L285.246 213.509ZM305.983 208.395C312.522 207.353 318.952 206.834 325.275 206.834V198.834C318.513 198.834 311.661 199.389 304.724 200.495L305.983 208.395ZM325.275 206.834C336.047 206.834 346.263 207.507 355.927 208.847L357.026 200.923C346.964 199.528 336.379 198.834 325.275 198.834V206.834ZM355.971 208.853C365.841 210.111 375.662 211.707 385.436 213.643L386.99 205.795C377.037 203.824 367.034 202.198 356.982 200.917L355.971 208.853ZM385.473 213.65C395.372 215.512 403.286 216.8 409.179 217.499L410.122 209.555C404.491 208.887 396.781 207.637 386.952 205.788L385.473 213.65ZM405.856 212.262C404.191 217.257 403.453 223.958 403.453 232.131H411.453C411.453 224.288 412.18 218.587 413.445 214.792L405.856 212.262ZM403.453 232.131C403.453 245.905 405.937 259.325 410.892 272.37L418.37 269.529C413.755 257.378 411.453 244.92 411.453 232.131H403.453ZM410.836 269.684C410.875 269.567 410.957 269.556 410.787 269.66C410.543 269.809 409.963 270.056 408.829 270.207L409.886 278.137C413.346 277.675 417.107 276.171 418.426 272.214L410.836 269.684Z" fill="#F8F4EA" mask="url(#path-2-outside-1_220_2)"/>
<mask id="path-4-outside-2_220_2" maskUnits="userSpaceOnUse" x="90" y="106" width="232" height="234" fill="black">
<rect fill="white" x="90" y="106" width="232" height="234"/>
<path d="M99.4258 114.668C120.52 115.449 137.512 115.84 150.402 115.84C155.285 115.84 163.146 115.645 173.986 115.254C184.826 114.863 193.176 114.668 199.035 114.668C220.715 114.668 237.756 120.137 250.158 131.074C262.658 142.012 268.908 156.221 268.908 173.701C268.908 187.764 264.758 200.361 256.457 211.494C248.156 222.529 236.828 230.439 222.473 235.225C229.016 246.943 238 260.225 249.426 275.068C260.461 289.814 270.959 301.387 280.92 309.785C290.979 318.184 301.77 322.92 313.293 323.994C313.684 325.557 313.879 326.777 313.879 327.656C313.879 328.633 313.684 329.707 313.293 330.879C307.434 330.586 301.184 330.391 294.543 330.293C287.902 330.195 280.48 330.146 272.277 330.146C264.172 330.146 257.922 330.098 253.527 330C227.258 299.434 206.164 269.355 190.246 239.766C183.117 239.766 174.914 238.643 165.637 236.396C165.637 255.342 166.174 279.854 167.248 309.932C167.346 312.471 168.469 314.668 170.617 316.523C172.766 318.281 175.842 319.648 179.846 320.625C183.947 321.602 187.365 322.334 190.1 322.822C192.932 323.213 196.594 323.604 201.086 323.994C201.477 325.947 201.672 327.266 201.672 327.949C201.672 328.73 201.477 329.707 201.086 330.879C184.484 330.293 167.492 330 150.109 330C132.531 330 115.539 330.293 99.1328 330.879C98.7422 329.707 98.5469 328.73 98.5469 327.949C98.5469 326.289 98.7422 324.971 99.1328 323.994C102.062 323.701 104.406 323.457 106.164 323.262C107.922 323.066 110.314 322.725 113.342 322.236C116.467 321.748 118.957 321.211 120.812 320.625C122.766 319.941 124.768 319.111 126.818 318.135C128.869 317.158 130.383 315.986 131.359 314.619C132.434 313.252 132.971 311.689 132.971 309.932C134.143 279.365 134.729 248.555 134.729 217.5C134.729 185.859 134.24 158.564 133.264 135.615C133.166 133.076 132.043 130.928 129.895 129.17C127.746 127.314 124.621 125.898 120.52 124.922C116.516 123.945 113.098 123.262 110.266 122.871C107.531 122.383 103.918 121.943 99.4258 121.553C99.0352 119.795 98.8398 118.574 98.8398 117.891C98.8398 117.305 99.0352 116.23 99.4258 114.668ZM167.541 124.775H167.248C166.174 160.811 165.637 194.307 165.637 225.264C172.473 227.51 179.406 228.633 186.438 228.633C192.883 228.633 198.645 227.559 203.723 225.41C208.898 223.164 213.146 220.234 216.467 216.621C219.787 213.008 222.521 208.76 224.67 203.877C226.916 198.994 228.479 194.062 229.357 189.082C230.334 184.102 230.822 178.975 230.822 173.701C230.822 159.15 226.818 147.285 218.811 138.105C210.9 128.828 199.621 124.189 184.973 124.189C177.746 124.189 171.936 124.385 167.541 124.775Z"/>
</mask>
<path d="M99.4258 114.668C120.52 115.449 137.512 115.84 150.402 115.84C155.285 115.84 163.146 115.645 173.986 115.254C184.826 114.863 193.176 114.668 199.035 114.668C220.715 114.668 237.756 120.137 250.158 131.074C262.658 142.012 268.908 156.221 268.908 173.701C268.908 187.764 264.758 200.361 256.457 211.494C248.156 222.529 236.828 230.439 222.473 235.225C229.016 246.943 238 260.225 249.426 275.068C260.461 289.814 270.959 301.387 280.92 309.785C290.979 318.184 301.77 322.92 313.293 323.994C313.684 325.557 313.879 326.777 313.879 327.656C313.879 328.633 313.684 329.707 313.293 330.879C307.434 330.586 301.184 330.391 294.543 330.293C287.902 330.195 280.48 330.146 272.277 330.146C264.172 330.146 257.922 330.098 253.527 330C227.258 299.434 206.164 269.355 190.246 239.766C183.117 239.766 174.914 238.643 165.637 236.396C165.637 255.342 166.174 279.854 167.248 309.932C167.346 312.471 168.469 314.668 170.617 316.523C172.766 318.281 175.842 319.648 179.846 320.625C183.947 321.602 187.365 322.334 190.1 322.822C192.932 323.213 196.594 323.604 201.086 323.994C201.477 325.947 201.672 327.266 201.672 327.949C201.672 328.73 201.477 329.707 201.086 330.879C184.484 330.293 167.492 330 150.109 330C132.531 330 115.539 330.293 99.1328 330.879C98.7422 329.707 98.5469 328.73 98.5469 327.949C98.5469 326.289 98.7422 324.971 99.1328 323.994C102.062 323.701 104.406 323.457 106.164 323.262C107.922 323.066 110.314 322.725 113.342 322.236C116.467 321.748 118.957 321.211 120.812 320.625C122.766 319.941 124.768 319.111 126.818 318.135C128.869 317.158 130.383 315.986 131.359 314.619C132.434 313.252 132.971 311.689 132.971 309.932C134.143 279.365 134.729 248.555 134.729 217.5C134.729 185.859 134.24 158.564 133.264 135.615C133.166 133.076 132.043 130.928 129.895 129.17C127.746 127.314 124.621 125.898 120.52 124.922C116.516 123.945 113.098 123.262 110.266 122.871C107.531 122.383 103.918 121.943 99.4258 121.553C99.0352 119.795 98.8398 118.574 98.8398 117.891C98.8398 117.305 99.0352 116.23 99.4258 114.668ZM167.541 124.775H167.248C166.174 160.811 165.637 194.307 165.637 225.264C172.473 227.51 179.406 228.633 186.438 228.633C192.883 228.633 198.645 227.559 203.723 225.41C208.898 223.164 213.146 220.234 216.467 216.621C219.787 213.008 222.521 208.76 224.67 203.877C226.916 198.994 228.479 194.062 229.357 189.082C230.334 184.102 230.822 178.975 230.822 173.701C230.822 159.15 226.818 147.285 218.811 138.105C210.9 128.828 199.621 124.189 184.973 124.189C177.746 124.189 171.936 124.385 167.541 124.775Z" fill="#242424"/>
<path d="M99.4258 114.668L99.7219 106.673L93.2382 106.433L91.6646 112.728L99.4258 114.668ZM250.158 131.074L244.867 137.074L244.878 137.085L244.89 137.095L250.158 131.074ZM256.457 211.494L262.85 216.303L262.86 216.29L262.871 216.276L256.457 211.494ZM222.473 235.225L219.943 227.635L210.778 230.69L215.488 239.125L222.473 235.225ZM249.426 275.068L255.831 270.275L255.798 270.232L255.765 270.189L249.426 275.068ZM280.92 309.785L275.763 315.901L275.778 315.914L275.793 315.926L280.92 309.785ZM313.293 323.994L321.054 322.054L319.679 316.555L314.036 316.029L313.293 323.994ZM313.293 330.879L312.893 338.869L318.961 339.172L320.882 333.409L313.293 330.879ZM253.527 330L247.46 335.214L249.784 337.919L253.35 337.998L253.527 330ZM190.246 239.766L197.291 235.976L195.027 231.766H190.246V239.766ZM165.637 236.396L167.519 228.621L157.637 226.229V236.396H165.637ZM167.248 309.932L159.253 310.217L159.254 310.228L159.254 310.239L167.248 309.932ZM170.617 316.523L165.388 322.578L165.469 322.648L165.551 322.715L170.617 316.523ZM179.846 320.625L177.95 328.397L177.971 328.402L177.993 328.407L179.846 320.625ZM190.1 322.822L188.693 330.698L188.849 330.726L189.007 330.747L190.1 322.822ZM201.086 323.994L208.931 322.425L207.754 316.544L201.779 316.024L201.086 323.994ZM201.086 330.879L200.804 338.874L206.783 339.085L208.675 333.409L201.086 330.879ZM99.1328 330.879L91.5433 333.409L93.4363 339.087L99.4183 338.874L99.1328 330.879ZM99.1328 323.994L98.3368 316.034L93.5075 316.517L91.705 321.023L99.1328 323.994ZM113.342 322.236L112.107 314.332L112.087 314.335L112.068 314.338L113.342 322.236ZM120.812 320.625L123.222 328.254L123.339 328.217L123.455 328.176L120.812 320.625ZM131.359 314.619L125.069 309.677L124.956 309.82L124.85 309.969L131.359 314.619ZM132.971 309.932L124.977 309.625L124.971 309.778V309.932H132.971ZM133.264 135.615L125.27 135.923L125.27 135.939L125.271 135.955L133.264 135.615ZM129.895 129.17L124.666 135.225L124.746 135.294L124.829 135.362L129.895 129.17ZM120.52 124.922L118.624 132.694L118.645 132.699L118.667 132.704L120.52 124.922ZM110.266 122.871L108.859 130.747L109.015 130.774L109.173 130.796L110.266 122.871ZM99.4258 121.553L91.6163 123.288L92.8888 129.014L98.7327 129.523L99.4258 121.553ZM167.541 124.775V132.775H167.896L168.249 132.744L167.541 124.775ZM167.248 124.775V116.775H159.483L159.252 124.537L167.248 124.775ZM165.637 225.264H157.637V231.056L163.139 232.864L165.637 225.264ZM203.723 225.41L206.84 232.778L206.874 232.764L206.907 232.749L203.723 225.41ZM224.67 203.877L217.402 200.534L217.374 200.594L217.347 200.655L224.67 203.877ZM229.357 189.082L221.507 187.543L221.492 187.617L221.479 187.692L229.357 189.082ZM218.811 138.105L212.723 143.296L212.752 143.33L212.782 143.364L218.811 138.105ZM99.1297 122.662C120.269 123.445 137.371 123.84 150.402 123.84V107.84C137.652 107.84 120.77 107.453 99.7219 106.673L99.1297 122.662ZM150.402 123.84C155.44 123.84 163.425 123.64 174.274 123.249L173.698 107.259C162.868 107.649 155.13 107.84 150.402 107.84V123.84ZM174.274 123.249C185.084 122.859 193.321 122.668 199.035 122.668V106.668C193.031 106.668 184.568 106.867 173.698 107.259L174.274 123.249ZM199.035 122.668C219.385 122.668 234.331 127.783 244.867 137.074L255.45 125.074C241.181 112.49 222.045 106.668 199.035 106.668V122.668ZM244.89 137.095C255.553 146.425 260.908 158.39 260.908 173.701H276.908C276.908 154.051 269.763 137.598 255.426 125.054L244.89 137.095ZM260.908 173.701C260.908 186.064 257.3 196.98 250.044 206.712L262.871 216.276C272.215 203.743 276.908 189.463 276.908 173.701H260.908ZM250.064 206.685C242.832 216.299 232.913 223.312 219.943 227.635L225.002 242.814C240.744 237.567 253.48 228.76 262.85 216.303L250.064 206.685ZM215.488 239.125C222.28 251.289 231.507 264.905 243.086 279.948L255.765 270.189C244.493 255.544 235.752 242.597 229.458 231.325L215.488 239.125ZM243.021 279.862C254.283 294.912 265.19 306.987 275.763 315.901L286.077 303.669C276.728 295.787 266.638 284.717 255.831 270.275L243.021 279.862ZM275.793 315.926C286.924 325.22 299.207 330.716 312.55 331.96L314.036 316.029C304.332 315.124 295.033 311.147 286.047 303.644L275.793 315.926ZM305.532 325.934C305.687 326.555 305.781 327.018 305.833 327.345C305.888 327.692 305.879 327.772 305.879 327.656H321.879C321.879 325.792 321.495 323.819 321.054 322.054L305.532 325.934ZM305.879 327.656C305.879 327.58 305.891 327.787 305.704 328.349L320.882 333.409C321.476 331.627 321.879 329.686 321.879 327.656H305.879ZM313.692 322.889C307.728 322.591 301.383 322.393 294.661 322.294L294.425 338.292C300.984 338.389 307.139 338.581 312.893 338.869L313.692 322.889ZM294.661 322.294C287.973 322.195 280.511 322.146 272.277 322.146V338.146C280.45 338.146 287.832 338.195 294.425 338.292L294.661 322.294ZM272.277 322.146C264.191 322.146 258.01 322.098 253.705 322.002L253.35 337.998C257.833 338.098 264.153 338.146 272.277 338.146V322.146ZM259.595 324.786C233.629 294.574 212.888 264.968 197.291 235.976L183.201 243.556C199.44 273.743 220.886 304.294 247.46 335.214L259.595 324.786ZM190.246 231.766C183.924 231.766 176.374 230.765 167.519 228.621L163.754 244.172C173.454 246.52 182.311 247.766 190.246 247.766V231.766ZM157.637 236.396C157.637 255.475 158.177 280.092 159.253 310.217L175.243 309.646C174.17 279.615 173.637 255.208 173.637 236.396H157.637ZM159.254 310.239C159.447 315.266 161.779 319.461 165.388 322.578L175.846 310.469C175.437 310.115 175.313 309.895 175.287 309.843C175.27 309.81 175.248 309.768 175.242 309.624L159.254 310.239ZM165.551 322.715C168.963 325.507 173.301 327.263 177.95 328.397L181.741 312.853C178.383 312.034 176.568 311.056 175.683 310.332L165.551 322.715ZM177.993 328.407C182.175 329.403 185.754 330.173 188.693 330.698L191.506 314.947C188.977 314.495 185.719 313.8 181.699 312.843L177.993 328.407ZM189.007 330.747C192.024 331.163 195.834 331.568 200.393 331.964L201.779 316.024C197.354 315.639 193.839 315.262 191.193 314.897L189.007 330.747ZM193.241 325.563C193.422 326.465 193.541 327.141 193.612 327.62C193.647 327.858 193.665 328.011 193.673 328.094C193.683 328.194 193.672 328.127 193.672 327.949H209.672C209.672 326.347 209.298 324.262 208.931 322.425L193.241 325.563ZM193.672 327.949C193.672 327.814 193.68 327.724 193.684 327.688C193.688 327.652 193.69 327.654 193.681 327.699C193.661 327.795 193.611 328.007 193.496 328.349L208.675 333.409C209.199 331.838 209.672 329.94 209.672 327.949H193.672ZM201.368 322.884C184.668 322.294 167.582 322 150.109 322V338C167.402 338 184.3 338.291 200.804 338.874L201.368 322.884ZM150.109 322C132.443 322 115.355 322.294 98.8473 322.884L99.4183 338.874C115.723 338.292 132.62 338 150.109 338V322ZM106.722 328.349C106.608 328.007 106.557 327.795 106.538 327.699C106.529 327.654 106.53 327.652 106.535 327.688C106.539 327.724 106.547 327.814 106.547 327.949H90.5469C90.5469 329.94 91.0196 331.838 91.5433 333.409L106.722 328.349ZM106.547 327.949C106.547 327.421 106.579 327.078 106.607 326.888C106.636 326.69 106.649 326.745 106.561 326.965L91.705 321.023C90.7818 323.331 90.5469 325.793 90.5469 327.949H106.547ZM99.9288 331.954C102.871 331.66 105.248 331.413 107.048 331.213L105.281 315.311C103.565 315.501 101.254 315.742 98.3368 316.034L99.9288 331.954ZM107.048 331.213C108.997 330.996 111.538 330.631 114.616 330.134L112.068 314.338C109.091 314.819 106.847 315.137 105.281 315.311L107.048 331.213ZM114.577 330.14C117.887 329.623 120.82 329.012 123.222 328.254L118.403 312.996C117.094 313.41 115.047 313.873 112.107 314.332L114.577 330.14ZM123.455 328.176C125.704 327.389 127.972 326.446 130.258 325.358L123.379 310.912C121.563 311.777 119.827 312.494 118.17 313.074L123.455 328.176ZM130.258 325.358C133.12 323.995 135.875 322.061 137.869 319.269L124.85 309.969C124.891 309.911 124.618 310.322 123.379 310.912L130.258 325.358ZM137.65 319.562C139.845 316.768 140.971 313.461 140.971 309.932H124.971C124.971 309.962 124.968 309.962 124.973 309.936C124.977 309.909 124.986 309.869 125.002 309.821C125.019 309.773 125.038 309.732 125.055 309.702C125.071 309.672 125.079 309.663 125.069 309.677L137.65 319.562ZM140.965 310.238C142.141 279.568 142.729 248.655 142.729 217.5H126.729C126.729 248.454 126.144 279.162 124.977 309.625L140.965 310.238ZM142.729 217.5C142.729 185.785 142.239 158.371 141.256 135.275L125.271 135.955C126.241 158.758 126.729 185.934 126.729 217.5H142.729ZM141.258 135.308C141.063 130.251 138.699 126.037 134.96 122.978L124.829 135.362C125.012 135.512 125.121 135.627 125.18 135.698C125.239 135.768 125.257 135.804 125.258 135.806C125.26 135.808 125.259 135.807 125.258 135.804C125.256 135.8 125.256 135.799 125.256 135.8C125.256 135.801 125.266 135.837 125.27 135.923L141.258 135.308ZM135.123 123.115C131.648 120.113 127.164 118.28 122.372 117.139L118.667 132.704C122.078 133.517 123.845 134.515 124.666 135.225L135.123 123.115ZM122.415 117.15C118.251 116.134 114.55 115.386 111.359 114.946L109.173 130.796C111.646 131.137 114.78 131.757 118.624 132.694L122.415 117.15ZM111.672 114.996C108.602 114.448 104.723 113.983 100.119 113.583L98.7327 129.523C103.113 129.904 106.46 130.318 108.859 130.747L111.672 114.996ZM107.235 119.817C107.061 119.031 106.95 118.454 106.886 118.055C106.854 117.858 106.84 117.74 106.835 117.688C106.828 117.623 106.84 117.705 106.84 117.891H90.8398C90.8398 119.568 91.2396 121.593 91.6163 123.288L107.235 119.817ZM106.84 117.891C106.84 118.034 106.834 118.14 106.83 118.198C106.826 118.258 106.822 118.292 106.822 118.294C106.821 118.298 106.823 118.281 106.829 118.242C106.835 118.203 106.844 118.149 106.857 118.077C106.913 117.77 107.016 117.292 107.187 116.608L91.6646 112.728C91.2996 114.188 90.8398 116.178 90.8398 117.891H106.84ZM167.541 116.775H167.248V132.775H167.541V116.775ZM159.252 124.537C158.175 160.639 157.637 194.216 157.637 225.264H173.637C173.637 194.398 174.172 160.982 175.244 125.014L159.252 124.537ZM163.139 232.864C170.762 235.369 178.538 236.633 186.438 236.633V220.633C180.274 220.633 174.183 219.651 168.134 217.663L163.139 232.864ZM186.438 236.633C193.775 236.633 200.623 235.408 206.84 232.778L200.606 218.042C196.666 219.709 191.991 220.633 186.438 220.633V236.633ZM206.907 232.749C212.957 230.124 218.175 226.586 222.357 222.034L210.576 211.208C208.118 213.883 204.84 216.204 200.538 218.071L206.907 232.749ZM222.357 222.034C226.322 217.72 229.521 212.716 231.992 207.099L217.347 200.655C215.522 204.804 213.253 208.296 210.576 211.208L222.357 222.034ZM231.938 207.22C234.452 201.754 236.231 196.168 237.236 190.472L221.479 187.692C220.726 191.957 219.38 196.234 217.402 200.534L231.938 207.22ZM237.208 190.621C238.288 185.114 238.822 179.471 238.822 173.701H222.822C222.822 178.478 222.38 183.089 221.507 187.543L237.208 190.621ZM238.822 173.701C238.822 157.612 234.356 143.756 224.839 132.847L212.782 143.364C219.281 150.815 222.822 160.689 222.822 173.701H238.822ZM224.898 132.915C215.161 121.495 201.445 116.189 184.973 116.189V132.189C197.797 132.189 206.64 136.161 212.723 143.296L224.898 132.915ZM184.973 116.189C177.638 116.189 171.563 116.386 166.833 116.807L168.249 132.744C172.308 132.383 177.854 132.189 184.973 132.189V116.189Z" fill="#F8F4EA" mask="url(#path-4-outside-2_220_2)"/>
</svg>
