<svg width="312" height="225" viewBox="0 0 312 225" fill="none" xmlns="http://www.w3.org/2000/svg">
<ellipse cx="155.407" cy="112.36" rx="120.386" ry="112.36" fill="white"/>
<line x1="35.7849" y1="108.508" x2="252.626" y2="108.508" stroke="black"/>
<line x1="58.2554" y1="123.045" x2="275.097" y2="123.045" stroke="black"/>
<line x1="154.823" y1="108.446" x2="154.823" y2="122.984" stroke="black"/>
<path d="M106.929 100.76V88H108.289V100.64C108.289 102.32 108.055 103.627 107.589 104.56C107.122 105.493 106.409 106.173 105.449 106.6L105.389 106.5C105.922 106.127 106.309 105.493 106.549 104.6C106.802 103.72 106.929 102.44 106.929 100.76ZM112.691 95C112.691 93.9733 112.871 93.02 113.231 92.14C113.604 91.2467 114.118 90.4733 114.771 89.82C115.438 89.1533 116.211 88.64 117.091 88.28C117.984 87.9067 118.944 87.72 119.971 87.72C120.998 87.72 121.951 87.9067 122.831 88.28C123.724 88.64 124.498 89.1533 125.151 89.82C125.818 90.4733 126.331 91.2467 126.691 92.14C127.064 93.02 127.251 93.9733 127.251 95C127.251 96.0267 127.064 96.9867 126.691 97.88C126.331 98.76 125.818 99.5333 125.151 100.2C124.498 100.853 123.724 101.367 122.831 101.74C121.951 102.1 120.998 102.28 119.971 102.28C118.944 102.28 117.984 102.1 117.091 101.74C116.211 101.367 115.438 100.853 114.771 100.2C114.118 99.5333 113.604 98.76 113.231 97.88C112.871 96.9867 112.691 96.0267 112.691 95ZM114.211 95C114.211 96.36 114.451 97.5533 114.931 98.58C115.411 99.5933 116.084 100.387 116.951 100.96C117.818 101.52 118.824 101.8 119.971 101.8C121.118 101.8 122.124 101.52 122.991 100.96C123.858 100.387 124.531 99.5867 125.011 98.56C125.491 97.5333 125.731 96.3467 125.731 95C125.731 93.6533 125.491 92.4733 125.011 91.46C124.531 90.4333 123.858 89.6333 122.991 89.06C122.124 88.4867 121.118 88.2 119.971 88.2C118.824 88.2 117.818 88.4867 116.951 89.06C116.098 89.62 115.424 90.4133 114.931 91.44C114.451 92.4533 114.211 93.64 114.211 95ZM131.645 102V88H133.005V94.48H141.405V88H142.765V102H141.405V94.96H133.005V102H131.645ZM146.093 102L151.473 88H152.713L158.093 102H156.633L154.153 95.44H149.613L147.553 102H146.093ZM151.613 89.04L149.753 94.96H153.973L151.733 89.04H151.613ZM161.237 102L161.737 87.72H161.977L172.037 99.88H172.157L171.717 88H173.077L172.577 102.28H172.337L162.277 90.12H162.157L162.597 102H161.237ZM177.882 102L178.382 87.72H178.622L188.682 99.88H188.802L188.362 88H189.722L189.222 102.28H188.982L178.922 90.12H178.802L179.242 102H177.882ZM192.748 102L198.128 88H199.368L204.748 102H203.288L200.808 95.44H196.268L194.208 102H192.748ZM198.268 89.04L196.408 94.96H200.628L198.388 89.04H198.268Z" fill="black"/>
<path d="M126.6 144V130H129.1C130.713 130 131.967 130.347 132.86 131.04C133.753 131.72 134.2 132.673 134.2 133.9C134.2 135.127 133.753 136.087 132.86 136.78C131.967 137.46 130.713 137.8 129.1 137.8H127.96V144H126.6ZM129.1 130.48H127.96V137.32H129.1C131.54 137.32 132.76 136.18 132.76 133.9C132.76 131.62 131.54 130.48 129.1 130.48ZM138.206 130H140.886C142.3 130 143.393 130.3 144.166 130.9C144.953 131.487 145.346 132.313 145.346 133.38C145.346 134.207 145.1 134.893 144.606 135.44C144.126 135.987 143.426 136.353 142.506 136.54V136.66C143.386 136.833 144.106 137.247 144.666 137.9C145.226 138.553 145.646 139.36 145.926 140.32C146.18 141.2 146.426 141.887 146.666 142.38C146.92 142.86 147.193 143.207 147.486 143.42C147.793 143.633 148.153 143.787 148.566 143.88V144H147.746C147.16 144 146.673 143.893 146.286 143.68C145.913 143.467 145.593 143.107 145.326 142.6C145.06 142.093 144.806 141.393 144.566 140.5C144.18 139.127 143.666 138.153 143.026 137.58C142.386 137.007 141.606 136.72 140.686 136.72H140.566V136.36H140.686C142.833 136.36 143.906 135.373 143.906 133.4C143.906 131.453 142.9 130.48 140.886 130.48H139.566V144H138.206V130ZM151.238 144V130H152.598V144H151.238ZM157.701 144L158.201 129.72H158.441L168.501 141.88H168.621L168.181 130H169.541L169.041 144.28H168.801L158.741 132.12H158.621L159.061 144H157.701ZM183.546 144H172.946V143.6L181.866 130.4C181.653 130.4 181.166 130.427 180.406 130.48L173.466 130.98V130H183.466V130.4L174.546 143.6C174.773 143.6 175.259 143.573 176.006 143.52L183.546 142.98V144Z" fill="black"/>
</svg>
