<svg width="214" height="154" viewBox="0 0 214 154" fill="none" xmlns="http://www.w3.org/2000/svg">
<ellipse cx="106.5" cy="77" rx="82.5" ry="77" fill="white"/>
<line x1="24.5234" y1="74.2029" x2="173.125" y2="74.2029" stroke="black"/>
<line x1="39.9222" y1="84.1655" x2="188.523" y2="84.1655" stroke="black"/>
<line x1="106.257" y1="74.3179" x2="106.257" y2="84.2805" stroke="black"/>
<path d="M67.4118 67.2324V57.0244H68.4998V67.1364C68.4998 68.4804 68.3131 69.5257 67.9398 70.2724C67.5664 71.019 66.9958 71.563 66.2278 71.9044L66.1798 71.8244C66.6064 71.5257 66.9158 71.019 67.1078 70.3044C67.3104 69.6004 67.4118 68.5764 67.4118 67.2324ZM72.0218 62.6244C72.0218 61.803 72.1658 61.0404 72.4538 60.3364C72.7524 59.6217 73.1631 59.003 73.6858 58.4804C74.2191 57.947 74.8378 57.5364 75.5418 57.2484C76.2564 56.9497 77.0244 56.8004 77.8458 56.8004C78.6671 56.8004 79.4298 56.9497 80.1338 57.2484C80.8484 57.5364 81.4671 57.947 81.9898 58.4804C82.5231 59.003 82.9338 59.6217 83.2218 60.3364C83.5204 61.0404 83.6698 61.803 83.6698 62.6244C83.6698 63.4457 83.5204 64.2137 83.2218 64.9284C82.9338 65.6324 82.5231 66.251 81.9898 66.7844C81.4671 67.307 80.8484 67.7177 80.1338 68.0164C79.4298 68.3044 78.6671 68.4484 77.8458 68.4484C77.0244 68.4484 76.2564 68.3044 75.5418 68.0164C74.8378 67.7177 74.2191 67.307 73.6858 66.7844C73.1631 66.251 72.7524 65.6324 72.4538 64.9284C72.1658 64.2137 72.0218 63.4457 72.0218 62.6244ZM73.2378 62.6244C73.2378 63.7124 73.4298 64.667 73.8138 65.4884C74.1978 66.299 74.7364 66.9337 75.4298 67.3924C76.1231 67.8404 76.9284 68.0644 77.8458 68.0644C78.7631 68.0644 79.5684 67.8404 80.2618 67.3924C80.9551 66.9337 81.4938 66.2937 81.8778 65.4724C82.2618 64.651 82.4538 63.7017 82.4538 62.6244C82.4538 61.547 82.2618 60.603 81.8778 59.7924C81.4938 58.971 80.9551 58.331 80.2618 57.8724C79.5684 57.4137 78.7631 57.1844 77.8458 57.1844C76.9284 57.1844 76.1231 57.4137 75.4298 57.8724C74.7471 58.3204 74.2084 58.955 73.8138 59.7764C73.4298 60.587 73.2378 61.5364 73.2378 62.6244ZM87.1849 68.2244V57.0244H88.2729V62.2084H94.9929V57.0244H96.0809V68.2244H94.9929V62.5924H88.2729V68.2244H87.1849ZM98.7434 68.2244L103.047 57.0244H104.039L108.343 68.2244H107.175L105.191 62.9764H101.559L99.9114 68.2244H98.7434ZM103.159 57.8564L101.671 62.5924H105.047L103.255 57.8564H103.159ZM110.859 68.2244L111.259 56.8004H111.451L119.499 66.5284H119.595L119.243 57.0244H120.331L119.931 68.4484H119.739L111.691 58.7204H111.595L111.947 68.2244H110.859ZM124.175 68.2244L124.575 56.8004H124.767L132.815 66.5284H132.911L132.559 57.0244H133.647L133.247 68.4484H133.055L125.007 58.7204H124.911L125.263 68.2244H124.175ZM136.067 68.2244L140.371 57.0244H141.363L145.667 68.2244H144.499L142.515 62.9764H138.883L137.235 68.2244H136.067ZM140.483 57.8564L138.995 62.5924H142.371L140.579 57.8564H140.483Z" fill="black"/>
<path d="M83.08 101V89.8H85.08C86.3707 89.8 87.3733 90.0773 88.088 90.632C88.8027 91.176 89.16 91.9387 89.16 92.92C89.16 93.9013 88.8027 94.6693 88.088 95.224C87.3733 95.768 86.3707 96.04 85.08 96.04H84.168V101H83.08ZM85.08 90.184H84.168V95.656H85.08C87.032 95.656 88.008 94.744 88.008 92.92C88.008 91.096 87.032 90.184 85.08 90.184ZM92.365 89.8H94.509C95.6397 89.8 96.5143 90.04 97.133 90.52C97.7623 90.9893 98.077 91.6507 98.077 92.504C98.077 93.1653 97.8797 93.7147 97.485 94.152C97.101 94.5893 96.541 94.8827 95.805 95.032V95.128C96.509 95.2667 97.085 95.5973 97.533 96.12C97.981 96.6427 98.317 97.288 98.541 98.056C98.7437 98.76 98.941 99.3093 99.133 99.704C99.3357 100.088 99.5543 100.365 99.789 100.536C100.034 100.707 100.322 100.829 100.653 100.904V101H99.997C99.5277 101 99.1383 100.915 98.829 100.744C98.5303 100.573 98.2743 100.285 98.061 99.88C97.8477 99.4747 97.645 98.9147 97.453 98.2C97.1437 97.1013 96.733 96.3227 96.221 95.864C95.709 95.4053 95.085 95.176 94.349 95.176H94.253V94.888H94.349C96.0663 94.888 96.925 94.0987 96.925 92.52C96.925 90.9627 96.1197 90.184 94.509 90.184H93.453V101H92.365V89.8ZM102.791 101V89.8H103.879V101H102.791ZM107.961 101L108.361 89.576H108.553L116.601 99.304H116.697L116.345 89.8H117.433L117.033 101.224H116.841L108.793 91.496H108.697L109.049 101H107.961ZM128.637 101H120.157V100.68L127.293 90.12C127.122 90.12 126.733 90.1413 126.125 90.184L120.573 90.584V89.8H128.573V90.12L121.437 100.68C121.618 100.68 122.008 100.659 122.605 100.616L128.637 100.184V101Z" fill="black"/>
</svg>
