<svg width="165" height="159" viewBox="0 0 165 159" fill="none" xmlns="http://www.w3.org/2000/svg">
<path d="M164.5 82C164.5 124.218 127.82 158.5 82.5 158.5C37.1796 158.5 0.5 124.218 0.5 82C0.5 39.7822 37.1796 5.5 82.5 5.5C127.82 5.5 164.5 39.7822 164.5 82Z" fill="#D3E0DC" fill-opacity="0.36" stroke="white"/>
<path d="M61.48 83.048V21.8H68.008V82.472C68.008 90.536 66.888 96.808 64.648 101.288C62.408 105.768 58.984 109.032 54.376 111.08L54.088 110.6C56.648 108.808 58.504 105.768 59.656 101.48C60.872 97.256 61.48 91.112 61.48 83.048Z" fill="black"/>
<path d="M74.48 142V74.8H86.48C94.224 74.8 100.24 76.464 104.528 79.792C108.816 83.056 110.96 87.632 110.96 93.52C110.96 99.408 108.816 104.016 104.528 107.344C100.24 110.608 94.224 112.24 86.48 112.24H81.008V142H74.48ZM86.48 77.104H81.008V109.936H86.48C98.192 109.936 104.048 104.464 104.048 93.52C104.048 82.576 98.192 77.104 86.48 77.104Z" fill="black"/>
<path d="M83.69 132.9H85.432C86.3507 132.9 87.0613 133.095 87.564 133.485C88.0753 133.866 88.331 134.404 88.331 135.097C88.331 135.634 88.1707 136.081 87.85 136.436C87.538 136.791 87.083 137.03 86.485 137.151V137.229C87.057 137.342 87.525 137.61 87.889 138.035C88.253 138.46 88.526 138.984 88.708 139.608C88.8727 140.18 89.033 140.626 89.189 140.947C89.3537 141.259 89.5313 141.484 89.722 141.623C89.9213 141.762 90.1553 141.861 90.424 141.922V142H89.891C89.5097 142 89.1933 141.931 88.942 141.792C88.6993 141.653 88.4913 141.419 88.318 141.09C88.1447 140.761 87.98 140.306 87.824 139.725C87.5727 138.832 87.239 138.2 86.823 137.827C86.407 137.454 85.9 137.268 85.302 137.268H85.224V137.034H85.302C86.6973 137.034 87.395 136.393 87.395 135.11C87.395 133.845 86.7407 133.212 85.432 133.212H84.574V142H83.69V132.9ZM92.1608 142V132.9H93.0448V142H92.1608ZM96.3614 142L96.6864 132.718H96.8424L103.381 140.622H103.459L103.173 132.9H104.057L103.732 142.182H103.576L97.0374 134.278H96.9594L97.2454 142H96.3614ZM113.161 142H106.271V141.74L112.069 133.16C111.93 133.16 111.614 133.177 111.12 133.212L106.609 133.537V132.9H113.109V133.16L107.311 141.74C107.458 141.74 107.775 141.723 108.26 141.688L113.161 141.337V142Z" fill="black"/>
<path d="M70.04 62.45C70.04 61.7827 70.157 61.163 70.391 60.591C70.6337 60.0103 70.9673 59.5077 71.392 59.083C71.8253 58.6497 72.328 58.316 72.9 58.082C73.4807 57.8393 74.1047 57.718 74.772 57.718C75.4393 57.718 76.059 57.8393 76.631 58.082C77.2117 58.316 77.7143 58.6497 78.139 59.083C78.5723 59.5077 78.906 60.0103 79.14 60.591C79.3827 61.163 79.504 61.7827 79.504 62.45C79.504 63.1173 79.3827 63.7413 79.14 64.322C78.906 64.894 78.5723 65.3967 78.139 65.83C77.7143 66.2547 77.2117 66.5883 76.631 66.831C76.059 67.065 75.4393 67.182 74.772 67.182C74.1047 67.182 73.4807 67.065 72.9 66.831C72.328 66.5883 71.8253 66.2547 71.392 65.83C70.9673 65.3967 70.6337 64.894 70.391 64.322C70.157 63.7413 70.04 63.1173 70.04 62.45ZM71.028 62.45C71.028 63.334 71.184 64.1097 71.496 64.777C71.808 65.4357 72.2457 65.9513 72.809 66.324C73.3723 66.688 74.0267 66.87 74.772 66.87C75.5173 66.87 76.1717 66.688 76.735 66.324C77.2983 65.9513 77.736 65.4313 78.048 64.764C78.36 64.0967 78.516 63.3253 78.516 62.45C78.516 61.5747 78.36 60.8077 78.048 60.149C77.736 59.4817 77.2983 58.9617 76.735 58.589C76.1717 58.2163 75.5173 58.03 74.772 58.03C74.0267 58.03 73.3723 58.2163 72.809 58.589C72.2543 58.953 71.8167 59.4687 71.496 60.136C71.184 60.7947 71.028 61.566 71.028 62.45ZM82.36 67V57.9H83.244V62.112H88.704V57.9H89.588V67H88.704V62.424H83.244V67H82.36ZM91.7513 67L95.2483 57.9H96.0543L99.5513 67H98.6023L96.9903 62.736H94.0393L92.7003 67H91.7513ZM95.3393 58.576L94.1303 62.424H96.8733L95.4173 58.576H95.3393ZM101.595 67L101.92 57.718H102.076L108.615 65.622H108.693L108.407 57.9H109.291L108.966 67.182H108.81L102.271 59.278H102.193L102.479 67H101.595ZM112.414 67L112.739 57.718H112.895L119.434 65.622H119.512L119.226 57.9H120.11L119.785 67.182H119.629L113.09 59.278H113.012L113.298 67H112.414ZM122.077 67L125.574 57.9H126.38L129.877 67H128.928L127.316 62.736H124.365L123.026 67H122.077ZM125.665 58.576L124.456 62.424H127.199L125.743 58.576H125.665Z" fill="black"/>
</svg>
