<svg width="730" height="501" viewBox="0 0 730 501" fill="none" xmlns="http://www.w3.org/2000/svg">
<mask id="path-1-outside-1_235_3" maskUnits="userSpaceOnUse" x="301" y="175" width="236" height="236" fill="black">
<rect fill="white" x="301" y="175" width="236" height="236"/>
<path d="M502.357 251.172C499.232 244.238 496.156 238.184 493.129 233.008C490.102 227.734 486.146 222.266 481.264 216.602C476.381 210.938 471.156 206.299 465.59 202.686C460.023 199.072 453.188 196.094 445.082 193.75C436.977 191.406 428.041 190.234 418.275 190.234C407.729 190.234 398.158 192.383 389.564 196.68C380.971 200.977 373.891 206.592 368.324 213.525C362.855 220.459 358.217 228.516 354.408 237.695C350.697 246.777 348.061 255.957 346.498 265.234C344.936 274.414 344.154 283.74 344.154 293.213C344.154 302.588 344.984 311.914 346.645 321.191C348.305 330.371 351.039 339.502 354.848 348.584C358.754 357.666 363.539 365.625 369.203 372.461C374.867 379.297 381.996 384.863 390.59 389.16C399.281 393.359 408.9 395.459 419.447 395.459C440.932 395.459 455.873 390.674 464.271 381.104V321.631C464.271 319.58 463.441 317.773 461.781 316.211C460.121 314.551 458.217 313.281 456.068 312.402C453.92 311.523 451.039 310.742 447.426 310.059C443.91 309.277 441.029 308.74 438.783 308.447C436.537 308.154 433.705 307.861 430.287 307.568C429.896 306.006 429.701 304.834 429.701 304.053C429.701 303.369 429.896 302.246 430.287 300.684C452.357 301.465 469.35 301.855 481.264 301.855C493.373 301.855 510.365 301.465 532.24 300.684C532.729 302.637 532.973 303.76 532.973 304.053C532.973 304.443 532.729 305.615 532.24 307.568C528.822 307.861 525.99 308.154 523.744 308.447C521.498 308.74 518.568 309.277 514.955 310.059C511.439 310.742 508.607 311.523 506.459 312.402C504.408 313.281 502.553 314.551 500.893 316.211C499.232 317.773 498.402 319.58 498.402 321.631V343.311C498.402 361.865 500.6 377.051 504.994 388.867C488.881 394.824 474.574 399.17 462.074 401.904C449.574 404.639 435.365 406.006 419.447 406.006C409.975 406.006 400.453 405.029 390.883 403.076C381.312 401.123 371.254 397.461 360.707 392.09C350.258 386.719 341.029 379.98 333.021 371.875C325.111 363.77 318.52 352.93 313.246 339.355C308.07 325.781 305.482 310.4 305.482 293.213C305.482 280.811 306.801 269.336 309.438 258.789C312.172 248.145 315.785 239.014 320.277 231.396C324.77 223.779 330.092 216.943 336.244 210.889C342.494 204.834 348.988 199.902 355.727 196.094C362.465 192.285 369.545 189.16 376.967 186.719C384.486 184.18 391.615 182.422 398.354 181.445C405.092 180.371 411.732 179.834 418.275 179.834C429.213 179.834 439.613 180.518 449.477 181.885C459.438 183.154 469.35 184.766 479.213 186.719C489.076 188.574 496.889 189.844 502.65 190.527C501.186 194.922 500.453 201.123 500.453 209.131C500.453 222.412 502.846 235.352 507.631 247.949C507.045 249.707 505.287 250.781 502.357 251.172Z"/>
</mask>
<path d="M502.357 251.172C499.232 244.238 496.156 238.184 493.129 233.008C490.102 227.734 486.146 222.266 481.264 216.602C476.381 210.938 471.156 206.299 465.59 202.686C460.023 199.072 453.188 196.094 445.082 193.75C436.977 191.406 428.041 190.234 418.275 190.234C407.729 190.234 398.158 192.383 389.564 196.68C380.971 200.977 373.891 206.592 368.324 213.525C362.855 220.459 358.217 228.516 354.408 237.695C350.697 246.777 348.061 255.957 346.498 265.234C344.936 274.414 344.154 283.74 344.154 293.213C344.154 302.588 344.984 311.914 346.645 321.191C348.305 330.371 351.039 339.502 354.848 348.584C358.754 357.666 363.539 365.625 369.203 372.461C374.867 379.297 381.996 384.863 390.59 389.16C399.281 393.359 408.9 395.459 419.447 395.459C440.932 395.459 455.873 390.674 464.271 381.104V321.631C464.271 319.58 463.441 317.773 461.781 316.211C460.121 314.551 458.217 313.281 456.068 312.402C453.92 311.523 451.039 310.742 447.426 310.059C443.91 309.277 441.029 308.74 438.783 308.447C436.537 308.154 433.705 307.861 430.287 307.568C429.896 306.006 429.701 304.834 429.701 304.053C429.701 303.369 429.896 302.246 430.287 300.684C452.357 301.465 469.35 301.855 481.264 301.855C493.373 301.855 510.365 301.465 532.24 300.684C532.729 302.637 532.973 303.76 532.973 304.053C532.973 304.443 532.729 305.615 532.24 307.568C528.822 307.861 525.99 308.154 523.744 308.447C521.498 308.74 518.568 309.277 514.955 310.059C511.439 310.742 508.607 311.523 506.459 312.402C504.408 313.281 502.553 314.551 500.893 316.211C499.232 317.773 498.402 319.58 498.402 321.631V343.311C498.402 361.865 500.6 377.051 504.994 388.867C488.881 394.824 474.574 399.17 462.074 401.904C449.574 404.639 435.365 406.006 419.447 406.006C409.975 406.006 400.453 405.029 390.883 403.076C381.312 401.123 371.254 397.461 360.707 392.09C350.258 386.719 341.029 379.98 333.021 371.875C325.111 363.77 318.52 352.93 313.246 339.355C308.07 325.781 305.482 310.4 305.482 293.213C305.482 280.811 306.801 269.336 309.438 258.789C312.172 248.145 315.785 239.014 320.277 231.396C324.77 223.779 330.092 216.943 336.244 210.889C342.494 204.834 348.988 199.902 355.727 196.094C362.465 192.285 369.545 189.16 376.967 186.719C384.486 184.18 391.615 182.422 398.354 181.445C405.092 180.371 411.732 179.834 418.275 179.834C429.213 179.834 439.613 180.518 449.477 181.885C459.438 183.154 469.35 184.766 479.213 186.719C489.076 188.574 496.889 189.844 502.65 190.527C501.186 194.922 500.453 201.123 500.453 209.131C500.453 222.412 502.846 235.352 507.631 247.949C507.045 249.707 505.287 250.781 502.357 251.172Z" fill="black"/>
<path d="M502.357 251.172L498.711 252.815L499.934 255.53L502.886 255.137L502.357 251.172ZM493.129 233.008L489.66 234.999L489.668 235.013L489.676 235.027L493.129 233.008ZM368.324 213.525L365.205 211.021L365.194 211.035L365.184 211.048L368.324 213.525ZM354.408 237.695L350.714 236.162L350.709 236.172L350.705 236.182L354.408 237.695ZM346.498 265.234L350.441 265.906L350.442 265.899L346.498 265.234ZM346.645 321.191L342.707 321.896L342.708 321.903L346.645 321.191ZM354.848 348.584L351.159 350.131L351.166 350.148L351.173 350.164L354.848 348.584ZM390.59 389.16L388.801 392.738L388.825 392.75L388.85 392.762L390.59 389.16ZM464.271 381.104L467.278 383.742L468.271 382.61V381.104H464.271ZM461.781 316.211L458.953 319.039L458.996 319.082L459.04 319.124L461.781 316.211ZM447.426 310.059L446.558 313.963L446.62 313.977L446.682 313.989L447.426 310.059ZM430.287 307.568L426.407 308.538L427.099 311.31L429.946 311.554L430.287 307.568ZM430.287 300.684L430.429 296.686L427.192 296.572L426.407 299.713L430.287 300.684ZM532.24 300.684L536.121 299.713L535.335 296.571L532.097 296.686L532.24 300.684ZM532.24 307.568L532.582 311.554L535.428 311.31L536.121 308.538L532.24 307.568ZM514.955 310.059L515.719 313.985L515.76 313.977L515.8 313.968L514.955 310.059ZM506.459 312.402L504.944 308.7L504.914 308.713L504.883 308.726L506.459 312.402ZM500.893 316.211L503.634 319.124L503.678 319.082L503.721 319.039L500.893 316.211ZM504.994 388.867L506.381 392.619L510.14 391.229L508.743 387.473L504.994 388.867ZM360.707 392.09L358.878 395.647L358.885 395.651L358.892 395.654L360.707 392.09ZM333.021 371.875L330.159 374.669L330.167 374.678L330.176 374.686L333.021 371.875ZM313.246 339.355L309.509 340.781L309.513 340.792L309.518 340.804L313.246 339.355ZM309.438 258.789L305.563 257.794L305.56 257.806L305.557 257.819L309.438 258.789ZM336.244 210.889L333.461 208.016L333.45 208.027L333.438 208.038L336.244 210.889ZM376.967 186.719L378.217 190.518L378.232 190.514L378.246 190.509L376.967 186.719ZM398.354 181.445L398.927 185.404L398.955 185.4L398.983 185.395L398.354 181.445ZM449.477 181.885L448.927 185.847L448.949 185.85L448.971 185.853L449.477 181.885ZM479.213 186.719L478.436 190.643L478.455 190.646L478.473 190.65L479.213 186.719ZM502.65 190.527L506.445 191.792L507.998 187.134L503.122 186.555L502.65 190.527ZM507.631 247.949L511.426 249.214L511.876 247.862L511.37 246.529L507.631 247.949ZM506.004 249.528C502.836 242.498 499.696 236.313 496.582 230.988L489.676 235.027C492.616 240.054 495.629 245.978 498.711 252.815L506.004 249.528ZM496.598 231.016C493.419 225.479 489.306 219.804 484.293 213.99L478.234 219.213C482.987 224.727 486.784 229.989 489.66 234.999L496.598 231.016ZM484.293 213.99C479.194 208.075 473.689 203.174 467.768 199.33L463.412 206.041C468.623 209.424 473.568 213.8 478.234 219.213L484.293 213.99ZM467.768 199.33C461.796 195.454 454.579 192.332 446.193 189.907L443.971 197.593C451.796 199.855 458.251 202.69 463.412 206.041L467.768 199.33ZM446.193 189.907C437.675 187.444 428.359 186.234 418.275 186.234V194.234C427.723 194.234 436.278 195.368 443.971 197.593L446.193 189.907ZM418.275 186.234C407.169 186.234 396.977 188.501 387.776 193.102L391.353 200.257C399.339 196.265 408.288 194.234 418.275 194.234V186.234ZM387.776 193.102C378.708 197.636 371.161 203.603 365.205 211.021L371.443 216.03C376.621 209.581 383.233 204.318 391.353 200.257L387.776 193.102ZM365.184 211.048C359.461 218.303 354.645 226.686 350.714 236.162L358.103 239.228C361.788 230.345 366.25 222.615 371.465 216.003L365.184 211.048ZM350.705 236.182C346.888 245.526 344.167 254.99 342.554 264.57L350.442 265.899C351.954 256.924 354.507 248.029 358.111 239.208L350.705 236.182ZM342.555 264.563C340.954 273.968 340.154 283.519 340.154 293.213H348.154C348.154 283.961 348.917 274.86 350.441 265.906L342.555 264.563ZM340.154 293.213C340.154 302.825 341.006 312.387 342.707 321.896L350.582 320.487C348.963 311.441 348.154 302.35 348.154 293.213H340.154ZM342.708 321.903C344.423 331.385 347.244 340.795 351.159 350.131L358.536 347.037C354.834 338.209 352.186 329.357 350.581 320.48L342.708 321.903ZM351.173 350.164C355.213 359.558 360.19 367.852 366.123 375.013L372.283 369.909C366.889 363.398 362.295 355.774 358.522 347.004L351.173 350.164ZM366.123 375.013C372.17 382.311 379.752 388.213 388.801 392.738L392.379 385.582C384.241 381.513 377.564 376.283 372.283 369.909L366.123 375.013ZM388.85 392.762C398.133 397.247 408.354 399.459 419.447 399.459V391.459C409.446 391.459 400.43 389.472 392.33 385.559L388.85 392.762ZM419.447 399.459C441.324 399.459 457.732 394.619 467.278 383.742L461.265 378.465C454.014 386.728 440.54 391.459 419.447 391.459V399.459ZM468.271 381.104V321.631H460.271V381.104H468.271ZM468.271 321.631C468.271 318.348 466.887 315.523 464.523 313.298L459.04 319.124C459.996 320.024 460.271 320.812 460.271 321.631H468.271ZM464.61 313.383C462.578 311.351 460.229 309.783 457.583 308.7L454.554 316.105C456.205 316.78 457.664 317.75 458.953 319.039L464.61 313.383ZM457.583 308.7C455.085 307.678 451.913 306.837 448.169 306.128L446.682 313.989C450.165 314.648 452.755 315.368 454.554 316.105L457.583 308.7ZM448.294 306.154C444.721 305.36 441.712 304.795 439.301 304.481L438.266 312.414C440.347 312.685 443.099 313.195 446.558 313.963L448.294 306.154ZM439.301 304.481C436.975 304.177 434.079 303.879 430.629 303.583L429.946 311.554C433.331 311.844 436.1 312.131 438.266 312.414L439.301 304.481ZM434.168 306.598C433.791 305.092 433.701 304.317 433.701 304.053H425.701C425.701 305.35 426.002 306.92 426.407 308.538L434.168 306.598ZM433.701 304.053C433.701 304.063 433.701 304.014 433.715 303.888C433.728 303.765 433.751 303.599 433.788 303.383C433.864 302.947 433.987 302.376 434.168 301.654L426.407 299.713C426.014 301.282 425.701 302.829 425.701 304.053H433.701ZM430.146 304.681C452.231 305.463 469.278 305.855 481.264 305.855V297.855C469.421 297.855 452.484 297.467 430.429 296.686L430.146 304.681ZM481.264 305.855C493.444 305.855 510.492 305.463 532.383 304.681L532.097 296.686C510.239 297.467 493.302 297.855 481.264 297.855V305.855ZM528.36 301.654C528.6 302.615 528.772 303.338 528.881 303.84C528.936 304.094 528.968 304.26 528.985 304.357C528.993 304.405 528.994 304.412 528.991 304.388C528.99 304.387 528.973 304.253 528.973 304.053H536.973C536.973 303.6 536.898 303.17 536.869 302.998C536.824 302.741 536.765 302.449 536.698 302.141C536.563 301.52 536.369 300.705 536.121 299.713L528.36 301.654ZM528.973 304.053C528.973 303.827 528.999 303.721 528.975 303.875C528.958 303.979 528.927 304.152 528.874 304.409C528.767 304.92 528.598 305.644 528.36 306.598L536.121 308.538C536.37 307.54 536.568 306.701 536.705 306.04C536.812 305.53 536.973 304.731 536.973 304.053H528.973ZM531.899 303.583C528.448 303.879 525.553 304.177 523.227 304.481L524.261 312.414C526.428 312.131 529.196 311.844 532.582 311.554L531.899 303.583ZM523.227 304.481C520.824 304.794 517.773 305.357 514.11 306.149L515.8 313.968C519.364 313.198 522.172 312.686 524.261 312.414L523.227 304.481ZM514.192 306.132C510.541 306.842 507.428 307.684 504.944 308.7L507.974 316.105C509.786 315.363 512.338 314.642 515.719 313.985L514.192 306.132ZM504.883 308.726C502.341 309.815 500.065 311.382 498.064 313.383L503.721 319.039C505.04 317.72 506.476 316.747 508.035 316.079L504.883 308.726ZM498.151 313.298C495.787 315.523 494.402 318.348 494.402 321.631H502.402C502.402 320.812 502.678 320.024 503.634 319.124L498.151 313.298ZM494.402 321.631V343.311H502.402V321.631H494.402ZM494.402 343.311C494.402 362.137 496.626 377.841 501.245 390.261L508.743 387.473C504.573 376.26 502.402 361.593 502.402 343.311H494.402ZM503.607 385.115C487.613 391.028 473.489 395.313 461.219 397.997L462.929 405.812C475.659 403.027 490.149 398.62 506.381 392.619L503.607 385.115ZM461.219 397.997C449.058 400.657 435.144 402.006 419.447 402.006V410.006C435.586 410.006 450.09 408.62 462.929 405.812L461.219 397.997ZM419.447 402.006C410.251 402.006 400.998 401.058 391.683 399.157L390.083 406.995C399.908 409.001 409.698 410.006 419.447 410.006V402.006ZM391.683 399.157C382.53 397.289 372.813 393.766 362.522 388.525L358.892 395.654C369.694 401.156 380.095 404.957 390.083 406.995L391.683 399.157ZM362.536 388.532C352.451 383.349 343.568 376.859 335.867 369.064L330.176 374.686C338.49 383.102 348.065 390.089 358.878 395.647L362.536 388.532ZM335.884 369.081C328.441 361.454 322.106 351.117 316.975 337.907L309.518 340.804C314.933 354.743 321.781 366.085 330.159 374.669L335.884 369.081ZM316.984 337.93C312.01 324.886 309.482 310.001 309.482 293.213H301.482C301.482 310.8 304.131 326.676 309.509 340.781L316.984 337.93ZM309.482 293.213C309.482 281.093 310.771 269.948 313.318 259.759L305.557 257.819C302.831 268.724 301.482 280.528 301.482 293.213H309.482ZM313.312 259.784C315.974 249.419 319.461 240.655 323.723 233.428L316.832 229.365C312.109 237.373 308.37 246.87 305.563 257.794L313.312 259.784ZM323.723 233.428C328.043 226.104 333.152 219.544 339.05 213.74L333.438 208.038C327.032 214.342 321.496 221.455 316.832 229.365L323.723 233.428ZM339.027 213.762C345.063 207.915 351.287 203.198 357.695 199.576L353.758 192.611C346.689 196.607 339.926 201.753 333.461 208.016L339.027 213.762ZM357.695 199.576C364.202 195.898 371.042 192.879 378.217 190.518L375.717 182.919C368.048 185.442 360.727 188.673 353.758 192.611L357.695 199.576ZM378.246 190.509C385.573 188.035 392.464 186.341 398.927 185.404L397.78 177.487C390.766 178.503 383.4 180.325 375.687 182.929L378.246 190.509ZM398.983 185.395C405.522 184.353 411.952 183.834 418.275 183.834V175.834C411.513 175.834 404.661 176.389 397.724 177.495L398.983 185.395ZM418.275 183.834C429.047 183.834 439.263 184.507 448.927 185.847L450.026 177.923C439.964 176.528 429.379 175.834 418.275 175.834V183.834ZM448.971 185.853C458.841 187.111 468.662 188.707 478.436 190.643L479.99 182.795C470.037 180.824 460.034 179.198 449.982 177.917L448.971 185.853ZM478.473 190.65C488.372 192.512 496.286 193.8 502.179 194.499L503.122 186.555C497.491 185.887 489.781 184.637 479.952 182.788L478.473 190.65ZM498.856 189.262C497.191 194.257 496.453 200.958 496.453 209.131H504.453C504.453 201.288 505.18 195.587 506.445 191.792L498.856 189.262ZM496.453 209.131C496.453 222.905 498.937 236.325 503.892 249.37L511.37 246.529C506.755 234.378 504.453 221.92 504.453 209.131H496.453ZM503.836 246.684C503.875 246.567 503.957 246.556 503.787 246.66C503.543 246.809 502.963 247.056 501.829 247.207L502.886 255.137C506.346 254.675 510.107 253.171 511.426 249.214L503.836 246.684Z" fill="#F8F4EA" mask="url(#path-1-outside-1_235_3)"/>
<mask id="path-3-outside-2_235_3" maskUnits="userSpaceOnUse" x="183" y="83" width="232" height="234" fill="black">
<rect fill="white" x="183" y="83" width="232" height="234"/>
<path d="M192.426 91.668C213.52 92.4492 230.512 92.8398 243.402 92.8398C248.285 92.8398 256.146 92.6445 266.986 92.2539C277.826 91.8633 286.176 91.668 292.035 91.668C313.715 91.668 330.756 97.1367 343.158 108.074C355.658 119.012 361.908 133.221 361.908 150.701C361.908 164.764 357.758 177.361 349.457 188.494C341.156 199.529 329.828 207.439 315.473 212.225C322.016 223.943 331 237.225 342.426 252.068C353.461 266.814 363.959 278.387 373.92 286.785C383.979 295.184 394.77 299.92 406.293 300.994C406.684 302.557 406.879 303.777 406.879 304.656C406.879 305.633 406.684 306.707 406.293 307.879C400.434 307.586 394.184 307.391 387.543 307.293C380.902 307.195 373.48 307.146 365.277 307.146C357.172 307.146 350.922 307.098 346.527 307C320.258 276.434 299.164 246.355 283.246 216.766C276.117 216.766 267.914 215.643 258.637 213.396C258.637 232.342 259.174 256.854 260.248 286.932C260.346 289.471 261.469 291.668 263.617 293.523C265.766 295.281 268.842 296.648 272.846 297.625C276.947 298.602 280.365 299.334 283.1 299.822C285.932 300.213 289.594 300.604 294.086 300.994C294.477 302.947 294.672 304.266 294.672 304.949C294.672 305.73 294.477 306.707 294.086 307.879C277.484 307.293 260.492 307 243.109 307C225.531 307 208.539 307.293 192.133 307.879C191.742 306.707 191.547 305.73 191.547 304.949C191.547 303.289 191.742 301.971 192.133 300.994C195.062 300.701 197.406 300.457 199.164 300.262C200.922 300.066 203.314 299.725 206.342 299.236C209.467 298.748 211.957 298.211 213.812 297.625C215.766 296.941 217.768 296.111 219.818 295.135C221.869 294.158 223.383 292.986 224.359 291.619C225.434 290.252 225.971 288.689 225.971 286.932C227.143 256.365 227.729 225.555 227.729 194.5C227.729 162.859 227.24 135.564 226.264 112.615C226.166 110.076 225.043 107.928 222.895 106.17C220.746 104.314 217.621 102.898 213.52 101.922C209.516 100.945 206.098 100.262 203.266 99.8711C200.531 99.3828 196.918 98.9434 192.426 98.5527C192.035 96.7949 191.84 95.5742 191.84 94.8906C191.84 94.3047 192.035 93.2305 192.426 91.668ZM260.541 101.775H260.248C259.174 137.811 258.637 171.307 258.637 202.264C265.473 204.51 272.406 205.633 279.438 205.633C285.883 205.633 291.645 204.559 296.723 202.41C301.898 200.164 306.146 197.234 309.467 193.621C312.787 190.008 315.521 185.76 317.67 180.877C319.916 175.994 321.479 171.062 322.357 166.082C323.334 161.102 323.822 155.975 323.822 150.701C323.822 136.15 319.818 124.285 311.811 115.105C303.9 105.828 292.621 101.189 277.973 101.189C270.746 101.189 264.936 101.385 260.541 101.775Z"/>
</mask>
<path d="M192.426 91.668C213.52 92.4492 230.512 92.8398 243.402 92.8398C248.285 92.8398 256.146 92.6445 266.986 92.2539C277.826 91.8633 286.176 91.668 292.035 91.668C313.715 91.668 330.756 97.1367 343.158 108.074C355.658 119.012 361.908 133.221 361.908 150.701C361.908 164.764 357.758 177.361 349.457 188.494C341.156 199.529 329.828 207.439 315.473 212.225C322.016 223.943 331 237.225 342.426 252.068C353.461 266.814 363.959 278.387 373.92 286.785C383.979 295.184 394.77 299.92 406.293 300.994C406.684 302.557 406.879 303.777 406.879 304.656C406.879 305.633 406.684 306.707 406.293 307.879C400.434 307.586 394.184 307.391 387.543 307.293C380.902 307.195 373.48 307.146 365.277 307.146C357.172 307.146 350.922 307.098 346.527 307C320.258 276.434 299.164 246.355 283.246 216.766C276.117 216.766 267.914 215.643 258.637 213.396C258.637 232.342 259.174 256.854 260.248 286.932C260.346 289.471 261.469 291.668 263.617 293.523C265.766 295.281 268.842 296.648 272.846 297.625C276.947 298.602 280.365 299.334 283.1 299.822C285.932 300.213 289.594 300.604 294.086 300.994C294.477 302.947 294.672 304.266 294.672 304.949C294.672 305.73 294.477 306.707 294.086 307.879C277.484 307.293 260.492 307 243.109 307C225.531 307 208.539 307.293 192.133 307.879C191.742 306.707 191.547 305.73 191.547 304.949C191.547 303.289 191.742 301.971 192.133 300.994C195.062 300.701 197.406 300.457 199.164 300.262C200.922 300.066 203.314 299.725 206.342 299.236C209.467 298.748 211.957 298.211 213.812 297.625C215.766 296.941 217.768 296.111 219.818 295.135C221.869 294.158 223.383 292.986 224.359 291.619C225.434 290.252 225.971 288.689 225.971 286.932C227.143 256.365 227.729 225.555 227.729 194.5C227.729 162.859 227.24 135.564 226.264 112.615C226.166 110.076 225.043 107.928 222.895 106.17C220.746 104.314 217.621 102.898 213.52 101.922C209.516 100.945 206.098 100.262 203.266 99.8711C200.531 99.3828 196.918 98.9434 192.426 98.5527C192.035 96.7949 191.84 95.5742 191.84 94.8906C191.84 94.3047 192.035 93.2305 192.426 91.668ZM260.541 101.775H260.248C259.174 137.811 258.637 171.307 258.637 202.264C265.473 204.51 272.406 205.633 279.438 205.633C285.883 205.633 291.645 204.559 296.723 202.41C301.898 200.164 306.146 197.234 309.467 193.621C312.787 190.008 315.521 185.76 317.67 180.877C319.916 175.994 321.479 171.062 322.357 166.082C323.334 161.102 323.822 155.975 323.822 150.701C323.822 136.15 319.818 124.285 311.811 115.105C303.9 105.828 292.621 101.189 277.973 101.189C270.746 101.189 264.936 101.385 260.541 101.775Z" fill="black"/>
<path d="M192.426 91.668L192.722 83.6734L186.238 83.4333L184.665 89.7277L192.426 91.668ZM343.158 108.074L337.867 114.074L337.878 114.085L337.89 114.095L343.158 108.074ZM349.457 188.494L355.85 193.303L355.86 193.29L355.871 193.276L349.457 188.494ZM315.473 212.225L312.943 204.635L303.778 207.69L308.488 216.125L315.473 212.225ZM342.426 252.068L348.831 247.275L348.798 247.232L348.765 247.189L342.426 252.068ZM373.92 286.785L368.763 292.901L368.778 292.914L368.793 292.926L373.92 286.785ZM406.293 300.994L414.054 299.054L412.679 293.555L407.036 293.029L406.293 300.994ZM406.293 307.879L405.893 315.869L411.961 316.172L413.882 310.409L406.293 307.879ZM346.527 307L340.46 312.214L342.784 314.919L346.35 314.998L346.527 307ZM283.246 216.766L290.291 212.976L288.027 208.766H283.246V216.766ZM258.637 213.396L260.519 205.621L250.637 203.229V213.396H258.637ZM260.248 286.932L252.253 287.217L252.254 287.228L252.254 287.239L260.248 286.932ZM263.617 293.523L258.388 299.578L258.469 299.648L258.551 299.715L263.617 293.523ZM272.846 297.625L270.95 305.397L270.971 305.402L270.993 305.407L272.846 297.625ZM283.1 299.822L281.693 307.698L281.849 307.726L282.007 307.747L283.1 299.822ZM294.086 300.994L301.931 299.425L300.754 293.544L294.779 293.024L294.086 300.994ZM294.086 307.879L293.804 315.874L299.783 316.085L301.675 310.409L294.086 307.879ZM192.133 307.879L184.543 310.409L186.436 316.087L192.418 315.874L192.133 307.879ZM192.133 300.994L191.337 293.034L186.507 293.517L184.705 298.023L192.133 300.994ZM206.342 299.236L205.107 291.332L205.087 291.335L205.068 291.338L206.342 299.236ZM213.812 297.625L216.222 305.254L216.339 305.217L216.455 305.176L213.812 297.625ZM224.359 291.619L218.069 286.677L217.956 286.82L217.85 286.969L224.359 291.619ZM225.971 286.932L217.977 286.625L217.971 286.778V286.932H225.971ZM226.264 112.615L218.27 112.923L218.27 112.939L218.271 112.955L226.264 112.615ZM222.895 106.17L217.666 112.225L217.746 112.294L217.829 112.362L222.895 106.17ZM213.52 101.922L211.624 109.694L211.645 109.699L211.667 109.704L213.52 101.922ZM203.266 99.8711L201.859 107.747L202.015 107.774L202.173 107.796L203.266 99.8711ZM192.426 98.5527L184.616 100.288L185.889 106.014L191.733 106.523L192.426 98.5527ZM260.541 101.775V109.775H260.896L261.249 109.744L260.541 101.775ZM260.248 101.775V93.7754H252.483L252.252 101.537L260.248 101.775ZM258.637 202.264H250.637V208.056L256.139 209.864L258.637 202.264ZM296.723 202.41L299.84 209.778L299.874 209.764L299.907 209.749L296.723 202.41ZM317.67 180.877L310.402 177.534L310.374 177.594L310.347 177.655L317.67 180.877ZM322.357 166.082L314.507 164.543L314.492 164.617L314.479 164.692L322.357 166.082ZM311.811 115.105L305.723 120.296L305.752 120.33L305.782 120.364L311.811 115.105ZM192.13 99.6625C213.269 100.445 230.371 100.84 243.402 100.84V84.8398C230.652 84.8398 213.77 84.453 192.722 83.6734L192.13 99.6625ZM243.402 100.84C248.44 100.84 256.425 100.64 267.274 100.249L266.698 84.2591C255.868 84.6494 248.13 84.8398 243.402 84.8398V100.84ZM267.274 100.249C278.084 99.8592 286.321 99.668 292.035 99.668V83.668C286.031 83.668 277.568 83.8674 266.698 84.2591L267.274 100.249ZM292.035 99.668C312.385 99.668 327.331 104.783 337.867 114.074L348.45 102.074C334.181 89.4904 315.045 83.668 292.035 83.668V99.668ZM337.89 114.095C348.553 123.425 353.908 135.39 353.908 150.701H369.908C369.908 131.051 362.763 114.598 348.426 102.054L337.89 114.095ZM353.908 150.701C353.908 163.064 350.3 173.98 343.044 183.712L355.871 193.276C365.215 180.743 369.908 166.463 369.908 150.701H353.908ZM343.064 183.685C335.832 193.299 325.913 200.312 312.943 204.635L318.002 219.814C333.744 214.567 346.48 205.76 355.85 193.303L343.064 183.685ZM308.488 216.125C315.28 228.289 324.507 241.905 336.086 256.948L348.765 247.189C337.493 232.544 328.752 219.597 322.458 208.325L308.488 216.125ZM336.021 256.862C347.283 271.912 358.19 283.987 368.763 292.901L379.077 280.669C369.728 272.787 359.638 261.717 348.831 247.275L336.021 256.862ZM368.793 292.926C379.924 302.22 392.207 307.716 405.55 308.96L407.036 293.029C397.332 292.124 388.033 288.147 379.047 280.644L368.793 292.926ZM398.532 302.934C398.687 303.555 398.781 304.018 398.833 304.345C398.888 304.692 398.879 304.772 398.879 304.656H414.879C414.879 302.792 414.495 300.819 414.054 299.054L398.532 302.934ZM398.879 304.656C398.879 304.58 398.891 304.787 398.704 305.349L413.882 310.409C414.476 308.627 414.879 306.686 414.879 304.656H398.879ZM406.692 299.889C400.728 299.591 394.383 299.393 387.661 299.294L387.425 315.292C393.984 315.389 400.139 315.581 405.893 315.869L406.692 299.889ZM387.661 299.294C380.973 299.195 373.511 299.146 365.277 299.146V315.146C373.45 315.146 380.832 315.195 387.425 315.292L387.661 299.294ZM365.277 299.146C357.191 299.146 351.01 299.098 346.705 299.002L346.35 314.998C350.833 315.098 357.153 315.146 365.277 315.146V299.146ZM352.595 301.786C326.629 271.574 305.888 241.968 290.291 212.976L276.201 220.556C292.44 250.743 313.886 281.294 340.46 312.214L352.595 301.786ZM283.246 208.766C276.924 208.766 269.374 207.765 260.519 205.621L256.754 221.172C266.454 223.52 275.311 224.766 283.246 224.766V208.766ZM250.637 213.396C250.637 232.475 251.177 257.092 252.253 287.217L268.243 286.646C267.17 256.615 266.637 232.208 266.637 213.396H250.637ZM252.254 287.239C252.447 292.266 254.779 296.461 258.388 299.578L268.846 287.469C268.437 287.115 268.313 286.895 268.287 286.843C268.27 286.81 268.248 286.768 268.242 286.624L252.254 287.239ZM258.551 299.715C261.963 302.507 266.301 304.263 270.95 305.397L274.741 289.853C271.383 289.034 269.568 288.056 268.683 287.332L258.551 299.715ZM270.993 305.407C275.175 306.403 278.754 307.173 281.693 307.698L284.506 291.947C281.977 291.495 278.719 290.8 274.699 289.843L270.993 305.407ZM282.007 307.747C285.024 308.163 288.834 308.568 293.393 308.964L294.779 293.024C290.354 292.639 286.839 292.262 284.193 291.897L282.007 307.747ZM286.241 302.563C286.422 303.465 286.541 304.141 286.612 304.62C286.647 304.858 286.665 305.011 286.673 305.094C286.683 305.194 286.672 305.127 286.672 304.949H302.672C302.672 303.347 302.298 301.262 301.931 299.425L286.241 302.563ZM286.672 304.949C286.672 304.814 286.68 304.724 286.684 304.688C286.688 304.652 286.69 304.654 286.681 304.699C286.661 304.795 286.611 305.007 286.496 305.349L301.675 310.409C302.199 308.838 302.672 306.94 302.672 304.949H286.672ZM294.368 299.884C277.668 299.294 260.582 299 243.109 299V315C260.402 315 277.3 315.291 293.804 315.874L294.368 299.884ZM243.109 299C225.443 299 208.355 299.294 191.847 299.884L192.418 315.874C208.723 315.292 225.62 315 243.109 315V299ZM199.722 305.349C199.608 305.007 199.557 304.795 199.538 304.699C199.529 304.654 199.53 304.652 199.535 304.688C199.539 304.724 199.547 304.814 199.547 304.949H183.547C183.547 306.94 184.02 308.838 184.543 310.409L199.722 305.349ZM199.547 304.949C199.547 304.421 199.579 304.078 199.607 303.888C199.636 303.69 199.649 303.745 199.561 303.965L184.705 298.023C183.782 300.331 183.547 302.793 183.547 304.949H199.547ZM192.929 308.954C195.871 308.66 198.248 308.413 200.048 308.213L198.281 292.311C196.565 292.501 194.254 292.742 191.337 293.034L192.929 308.954ZM200.048 308.213C201.997 307.996 204.538 307.631 207.616 307.134L205.068 291.338C202.091 291.819 199.847 292.137 198.281 292.311L200.048 308.213ZM207.577 307.14C210.887 306.623 213.82 306.012 216.222 305.254L211.403 289.996C210.094 290.41 208.047 290.873 205.107 291.332L207.577 307.14ZM216.455 305.176C218.704 304.389 220.972 303.446 223.258 302.358L216.379 287.912C214.563 288.777 212.827 289.494 211.17 290.074L216.455 305.176ZM223.258 302.358C226.12 300.995 228.875 299.061 230.869 296.269L217.85 286.969C217.891 286.911 217.618 287.322 216.379 287.912L223.258 302.358ZM230.65 296.562C232.845 293.768 233.971 290.461 233.971 286.932H217.971C217.971 286.962 217.968 286.962 217.973 286.936C217.977 286.909 217.986 286.869 218.002 286.821C218.019 286.773 218.038 286.732 218.055 286.702C218.071 286.672 218.079 286.663 218.069 286.677L230.65 296.562ZM233.965 287.238C235.141 256.568 235.729 225.655 235.729 194.5H219.729C219.729 225.454 219.144 256.162 217.977 286.625L233.965 287.238ZM235.729 194.5C235.729 162.785 235.239 135.371 234.256 112.275L218.271 112.955C219.241 135.758 219.729 162.934 219.729 194.5H235.729ZM234.258 112.308C234.063 107.251 231.699 103.037 227.96 99.9783L217.829 112.362C218.012 112.512 218.121 112.627 218.18 112.698C218.239 112.768 218.257 112.804 218.258 112.806C218.26 112.808 218.259 112.807 218.258 112.804C218.256 112.8 218.256 112.799 218.256 112.8C218.256 112.801 218.266 112.837 218.27 112.923L234.258 112.308ZM228.123 100.115C224.648 97.1135 220.164 95.2802 215.372 94.1394L211.667 109.704C215.078 110.517 216.845 111.515 217.666 112.225L228.123 100.115ZM215.415 94.1497C211.251 93.1341 207.55 92.3863 204.359 91.9461L202.173 107.796C204.646 108.137 207.78 108.757 211.624 109.694L215.415 94.1497ZM204.672 91.9957C201.602 91.4475 197.723 90.9832 193.119 90.5828L191.733 106.523C196.113 106.904 199.46 107.318 201.859 107.747L204.672 91.9957ZM200.235 96.8173C200.061 96.0311 199.95 95.4539 199.886 95.0549C199.854 94.8581 199.84 94.7404 199.835 94.6878C199.828 94.6228 199.84 94.7054 199.84 94.8906H183.84C183.84 96.5681 184.24 98.593 184.616 100.288L200.235 96.8173ZM199.84 94.8906C199.84 95.0345 199.834 95.1404 199.83 95.1984C199.826 95.2584 199.822 95.292 199.822 95.2943C199.821 95.2976 199.823 95.281 199.829 95.2419C199.835 95.2033 199.844 95.1487 199.857 95.0766C199.913 94.7697 200.016 94.292 200.187 93.6083L184.665 89.7277C184.3 91.1877 183.84 93.178 183.84 94.8906H199.84ZM260.541 93.7754H260.248V109.775H260.541V93.7754ZM252.252 101.537C251.175 137.639 250.637 171.216 250.637 202.264H266.637C266.637 171.398 267.172 137.982 268.244 102.014L252.252 101.537ZM256.139 209.864C263.762 212.369 271.538 213.633 279.438 213.633V197.633C273.274 197.633 267.183 196.651 261.134 194.663L256.139 209.864ZM279.438 213.633C286.775 213.633 293.623 212.408 299.84 209.778L293.606 195.042C289.666 196.709 284.991 197.633 279.438 197.633V213.633ZM299.907 209.749C305.957 207.124 311.175 203.586 315.357 199.034L303.576 188.208C301.118 190.883 297.84 193.204 293.538 195.071L299.907 209.749ZM315.357 199.034C319.322 194.72 322.521 189.716 324.992 184.099L310.347 177.655C308.522 181.804 306.253 185.296 303.576 188.208L315.357 199.034ZM324.938 184.22C327.452 178.754 329.231 173.168 330.236 167.472L314.479 164.692C313.726 168.957 312.38 173.234 310.402 177.534L324.938 184.22ZM330.208 167.621C331.288 162.114 331.822 156.471 331.822 150.701H315.822C315.822 155.478 315.38 160.089 314.507 164.543L330.208 167.621ZM331.822 150.701C331.822 134.612 327.356 120.756 317.839 109.847L305.782 120.364C312.281 127.815 315.822 137.689 315.822 150.701H331.822ZM317.898 109.915C308.161 98.4949 294.445 93.1895 277.973 93.1895V109.189C290.797 109.189 299.64 113.161 305.723 120.296L317.898 109.915ZM277.973 93.1895C270.638 93.1895 264.563 93.3863 259.833 93.8068L261.249 109.744C265.308 109.383 270.854 109.189 277.973 109.189V93.1895Z" fill="#F8F4EA" mask="url(#path-3-outside-2_235_3)"/>
<path d="M46.8569 462V430.5H58.6469C61.3169 430.5 63.6119 430.935 65.5319 431.805C67.4519 432.645 68.9219 433.875 69.9419 435.495C70.9919 437.085 71.5169 439.02 71.5169 441.3C71.5169 443.52 70.9919 445.44 69.9419 447.06C68.9219 448.65 67.4519 449.88 65.5319 450.75C63.6119 451.59 61.3169 452.01 58.6469 452.01H48.7019L50.1869 450.48V462H46.8569ZM68.3669 462L60.2669 450.57H63.8669L72.0119 462H68.3669ZM50.1869 450.75L48.7019 449.175H58.5569C61.7069 449.175 64.0919 448.485 65.7119 447.105C67.3619 445.725 68.1869 443.79 68.1869 441.3C68.1869 438.78 67.3619 436.83 65.7119 435.45C64.0919 434.07 61.7069 433.38 58.5569 433.38H48.7019L50.1869 431.805V450.75ZM96.7464 444.585H113.396V447.42H96.7464V444.585ZM97.1064 459.12H116.051V462H93.7764V430.5H115.376V433.38H97.1064V459.12ZM138.279 462V430.5H151.869C155.379 430.5 158.094 431.205 160.014 432.615C161.964 434.025 162.939 436.02 162.939 438.6C162.939 440.31 162.534 441.75 161.724 442.92C160.944 444.09 159.864 444.975 158.484 445.575C157.134 446.175 155.649 446.475 154.029 446.475L154.794 445.395C156.804 445.395 158.529 445.71 159.969 446.34C161.439 446.94 162.579 447.855 163.389 449.085C164.199 450.285 164.604 451.785 164.604 453.585C164.604 456.255 163.614 458.325 161.634 459.795C159.684 461.265 156.729 462 152.769 462H138.279ZM141.609 459.255H152.724C155.484 459.255 157.599 458.79 159.069 457.86C160.539 456.9 161.274 455.385 161.274 453.315C161.274 451.275 160.539 449.79 159.069 448.86C157.599 447.9 155.484 447.42 152.724 447.42H141.249V444.675H151.644C154.164 444.675 156.114 444.195 157.494 443.235C158.904 442.275 159.609 440.85 159.609 438.96C159.609 437.04 158.904 435.615 157.494 434.685C156.114 433.725 154.164 433.245 151.644 433.245H141.609V459.255ZM189.575 444.585H206.225V447.42H189.575V444.585ZM189.935 459.12H208.88V462H186.605V430.5H208.205V433.38H189.935V459.12ZM244.699 462.27C242.329 462.27 240.139 461.88 238.129 461.1C236.119 460.29 234.379 459.165 232.909 457.725C231.439 456.285 230.284 454.59 229.444 452.64C228.634 450.69 228.229 448.56 228.229 446.25C228.229 443.94 228.634 441.81 229.444 439.86C230.284 437.91 231.439 436.215 232.909 434.775C234.409 433.335 236.164 432.225 238.174 431.445C240.184 430.635 242.374 430.23 244.744 430.23C247.024 430.23 249.169 430.62 251.179 431.4C253.189 432.15 254.884 433.29 256.264 434.82L254.149 436.935C252.859 435.615 251.434 434.67 249.874 434.1C248.314 433.5 246.634 433.2 244.834 433.2C242.944 433.2 241.189 433.53 239.569 434.19C237.949 434.82 236.539 435.735 235.339 436.935C234.139 438.105 233.194 439.485 232.504 441.075C231.844 442.635 231.514 444.36 231.514 446.25C231.514 448.14 231.844 449.88 232.504 451.47C233.194 453.03 234.139 454.41 235.339 455.61C236.539 456.78 237.949 457.695 239.569 458.355C241.189 458.985 242.944 459.3 244.834 459.3C246.634 459.3 248.314 459 249.874 458.4C251.434 457.8 252.859 456.84 254.149 455.52L256.264 457.635C254.884 459.165 253.189 460.32 251.179 461.1C249.169 461.88 247.009 462.27 244.699 462.27ZM280.643 454.17L280.508 450.12L299.588 430.5H303.413L289.508 445.08L287.618 447.105L280.643 454.17ZM277.763 462V430.5H281.093V462H277.763ZM300.398 462L286.808 446.34L289.058 443.91L304.358 462H300.398ZM317.885 462L332.285 430.5H335.57L349.97 462H346.46L333.23 432.435H334.58L321.35 462H317.885ZM323.555 453.585L324.545 450.885H342.86L343.85 453.585H323.555ZM409.573 462.27C407.173 462.27 404.953 461.88 402.913 461.1C400.903 460.29 399.148 459.165 397.648 457.725C396.178 456.285 395.023 454.59 394.183 452.64C393.373 450.69 392.968 448.56 392.968 446.25C392.968 443.94 393.373 441.81 394.183 439.86C395.023 437.91 396.193 436.215 397.693 434.775C399.193 433.335 400.948 432.225 402.958 431.445C404.998 430.635 407.218 430.23 409.618 430.23C412.018 430.23 414.208 430.605 416.188 431.355C418.198 432.105 419.908 433.245 421.318 434.775L419.248 436.89C417.928 435.57 416.473 434.625 414.883 434.055C413.293 433.485 411.583 433.2 409.753 433.2C407.803 433.2 406.003 433.53 404.353 434.19C402.733 434.82 401.308 435.735 400.078 436.935C398.878 438.105 397.933 439.485 397.243 441.075C396.583 442.635 396.253 444.36 396.253 446.25C396.253 448.11 396.583 449.835 397.243 451.425C397.933 453.015 398.878 454.41 400.078 455.61C401.308 456.78 402.733 457.695 404.353 458.355C406.003 458.985 407.788 459.3 409.708 459.3C411.508 459.3 413.203 459.03 414.793 458.49C416.413 457.95 417.898 457.035 419.248 455.745L421.138 458.265C419.638 459.585 417.883 460.59 415.873 461.28C413.863 461.94 411.763 462.27 409.573 462.27ZM417.943 457.86V446.25H421.138V458.265L417.943 457.86ZM458.733 462.27C456.363 462.27 454.158 461.88 452.118 461.1C450.108 460.29 448.353 459.165 446.853 457.725C445.383 456.255 444.228 454.56 443.388 452.64C442.578 450.69 442.173 448.56 442.173 446.25C442.173 443.94 442.578 441.825 443.388 439.905C444.228 437.955 445.383 436.26 446.853 434.82C448.353 433.35 450.108 432.225 452.118 431.445C454.128 430.635 456.333 430.23 458.733 430.23C461.103 430.23 463.293 430.635 465.303 431.445C467.313 432.225 469.053 433.335 470.523 434.775C472.023 436.215 473.178 437.91 473.988 439.86C474.828 441.81 475.248 443.94 475.248 446.25C475.248 448.56 474.828 450.69 473.988 452.64C473.178 454.59 472.023 456.285 470.523 457.725C469.053 459.165 467.313 460.29 465.303 461.1C463.293 461.88 461.103 462.27 458.733 462.27ZM458.733 459.3C460.623 459.3 462.363 458.985 463.953 458.355C465.573 457.695 466.968 456.78 468.138 455.61C469.338 454.41 470.268 453.03 470.928 451.47C471.588 449.88 471.918 448.14 471.918 446.25C471.918 444.36 471.588 442.635 470.928 441.075C470.268 439.485 469.338 438.105 468.138 436.935C466.968 435.735 465.573 434.82 463.953 434.19C462.363 433.53 460.623 433.2 458.733 433.2C456.843 433.2 455.088 433.53 453.468 434.19C451.848 434.82 450.438 435.735 449.238 436.935C448.068 438.105 447.138 439.485 446.448 441.075C445.788 442.635 445.458 444.36 445.458 446.25C445.458 448.11 445.788 449.835 446.448 451.425C447.138 453.015 448.068 454.41 449.238 455.61C450.438 456.78 451.848 457.695 453.468 458.355C455.088 458.985 456.843 459.3 458.733 459.3ZM462.738 426.9C462.228 426.9 461.778 426.72 461.388 426.36C460.998 426 460.803 425.535 460.803 424.965C460.803 424.395 460.998 423.93 461.388 423.57C461.778 423.21 462.228 423.03 462.738 423.03C463.278 423.03 463.728 423.21 464.088 423.57C464.478 423.93 464.673 424.395 464.673 424.965C464.673 425.535 464.478 426 464.088 426.36C463.728 426.72 463.278 426.9 462.738 426.9ZM454.728 426.9C454.188 426.9 453.723 426.72 453.333 426.36C452.973 426 452.793 425.535 452.793 424.965C452.793 424.395 452.973 423.93 453.333 423.57C453.723 423.21 454.188 423.03 454.728 423.03C455.238 423.03 455.688 423.21 456.078 423.57C456.468 423.93 456.663 424.395 456.663 424.965C456.663 425.535 456.468 426 456.078 426.36C455.688 426.72 455.238 426.9 454.728 426.9ZM502.792 462V433.38H491.722V430.5H517.192V433.38H506.122V462H502.792ZM559.952 430.5H563.237V462H559.952V430.5ZM540.242 462H536.912V430.5H540.242V462ZM560.267 447.465H539.882V444.54H560.267V447.465ZM587.919 462V430.5H591.249V459.12H608.889V462H587.919ZM628.818 462V430.5H632.148V462H628.818ZM656.797 462V430.5H659.542L681.277 457.86H679.837V430.5H683.122V462H680.377L658.687 434.64H660.127V462H656.797Z" fill="black"/>
</svg>
